# This file uses centimeters as units for non-parametric coordinates.

v -5.328861 -0.236570 3.486863
v 5.328861 -0.236570 3.486863
v -5.328861 0.346941 3.140574
v 5.328861 0.346941 3.140574
v -5.328861 0.346941 -3.140576
v 5.328861 0.346941 -3.140576
v -5.328861 -0.236570 -3.486863
v 5.328861 -0.236570 -3.486863
v -4.417398 0.346941 3.140574
v -4.417398 0.346941 -3.140576
v -4.417398 -0.236570 -3.486863
v -4.417398 -0.236570 3.486863
v -3.714282 0.346941 3.140574
v -3.714282 0.346941 -3.140576
v -3.714282 -0.236570 -3.486863
v -3.714282 -0.236570 3.486863
v 3.736395 0.346941 3.140574
v 3.736395 0.346941 -3.140576
v 3.736395 -0.236570 -3.486863
v 3.736395 -0.236570 3.486863
v 4.430998 0.346941 3.140574
v 4.430998 0.346941 -3.140576
v 4.430998 -0.236570 -3.486863
v 4.430998 -0.236570 3.486863
v -4.417398 0.183619 3.047582
v -3.714282 0.183619 3.047582
v -3.714282 0.183619 -3.047583
v -4.417398 0.183619 -3.047583
v -4.417398 -0.346941 -3.300877
v -3.714282 -0.346941 -3.300877
v -4.417398 -0.346941 3.300879
v -3.714282 -0.346941 3.300879
v 3.736395 0.183619 3.047582
v 4.430998 0.183619 3.047582
v 4.430998 0.183619 -3.047583
v 3.736395 0.183619 -3.047583
v 3.736395 -0.346941 -3.300877
v 4.430998 -0.346941 -3.300877
v 3.736395 -0.346941 3.300879
v 4.430998 -0.346941 3.300879
vt 0.368914 0.361663
vt 0.368914 0.001992
vt 0.526799 0.019852
vt 0.526799 0.343803
vt 0.532775 0.361663
vt 0.532775 0.001992
vt 0.690660 0.019852
vt 0.690660 0.343803
vt 0.884385 0.019852
vt 0.884385 0.343803
vt 0.840194 0.339007
vt 0.840194 0.024648
vt 0.726500 0.361663
vt 0.696636 0.352071
vt 0.726500 0.001992
vt 0.696636 0.011584
vt 0.953510 0.383336
vt 0.953510 0.707287
vt 0.909318 0.702491
vt 0.909318 0.388132
vt 0.795625 0.725147
vt 0.765760 0.715555
vt 0.795625 0.365476
vt 0.765760 0.375069
vt 0.759899 0.383336
vt 0.759899 0.707288
vt 0.715707 0.702491
vt 0.715707 0.388132
vt 0.602014 0.725147
vt 0.572149 0.715555
vt 0.602014 0.365476
vt 0.572149 0.375069
vt 0.566288 0.383336
vt 0.566288 0.707287
vt 0.522096 0.702491
vt 0.522096 0.388132
vt 0.408403 0.725147
vt 0.378538 0.715555
vt 0.408403 0.365476
vt 0.378538 0.375069
vt 0.341917 0.365477
vt 0.372676 0.365477
vt 0.372676 0.689428
vt 0.341917 0.689428
vt 0.001903 0.361663
vt 0.001903 0.330903
vt 0.361574 0.330903
vt 0.361574 0.361663
vt 0.001903 0.307175
vt 0.361574 0.307175
vt 0.001903 0.055734
vt 0.361574 0.055734
vt 0.001903 0.032293
vt 0.361574 0.032293
vt 0.001903 0.001992
vt 0.361574 0.001992
vt 0.018861 0.365477
vt 0.042590 0.365477
vt 0.042590 0.679835
vt 0.018861 0.679835
vt 0.084614 0.365477
vt 0.336055 0.365477
vt 0.336055 0.689428
vt 0.084614 0.689428
vt 0.001903 0.683649
vt 0.025344 0.683649
vt 0.025344 0.998008
vt 0.001903 0.998008
vt 0.048451 0.365477
vt 0.078752 0.365477
vt 0.078752 0.689428
vt 0.048451 0.689428
vt 0.359604 0.728961
vt 0.390363 0.728961
vt 0.390363 0.886846
vt 0.359604 0.886846
vt 0.396845 0.728961
vt 0.427604 0.728961
vt 0.427604 0.886846
vt 0.396845 0.886846
vt 0.508568 0.872519
vt 0.508568 0.728961
vt 0.532297 0.728961
vt 0.532297 0.872519
vt 0.538361 0.872519
vt 0.538361 0.728961
vt 0.562090 0.728961
vt 0.562090 0.872519
vt 0.189767 0.944683
vt 0.031882 0.944683
vt 0.031882 0.693241
vt 0.189767 0.693241
vt 0.353628 0.944683
vt 0.195743 0.944683
vt 0.195743 0.693241
vt 0.353628 0.693241
vt 0.568154 0.872519
vt 0.568154 0.728961
vt 0.591595 0.728961
vt 0.591595 0.872519
vt 0.597947 0.872519
vt 0.597947 0.728961
vt 0.621388 0.728961
vt 0.621388 0.872519
vt 0.434086 0.886846
vt 0.434086 0.728961
vt 0.464387 0.728961
vt 0.464387 0.886846
vt 0.471327 0.886846
vt 0.471327 0.728961
vt 0.501628 0.728961
vt 0.501628 0.886846
vt 0.651468 0.758825
vt 0.627740 0.758825
vt 0.627740 0.728961
vt 0.651468 0.728961
vt 0.657533 0.728961
vt 0.681261 0.728961
vt 0.681261 0.758825
vt 0.657533 0.758825
vt 0.710767 0.758825
vt 0.687325 0.758825
vt 0.687325 0.728961
vt 0.710767 0.728961
vt 0.717118 0.728961
vt 0.740559 0.728961
vt 0.740559 0.758825
vt 0.717118 0.758825
vn 0.000000 0.510352 0.859966
vn 0.000000 0.510352 0.859966
vn 0.000000 0.510352 0.859966
vn 0.000000 0.510352 0.859966
vn 0.000000 1.000000 0.000000
vn 0.000000 1.000000 0.000000
vn 0.000000 1.000000 0.000000
vn 0.000000 1.000000 0.000000
vn 0.000000 0.510350 -0.859967
vn 0.000000 0.510350 -0.859967
vn 0.000000 0.510350 -0.859967
vn 0.000000 0.510350 -0.859967
vn 0.000000 -1.000000 0.000000
vn 0.000000 -1.000000 0.000000
vn 0.000000 -1.000000 0.000000
vn 0.000000 -1.000000 0.000000
vn 1.000000 0.000000 0.000000
vn 1.000000 0.000000 0.000000
vn 1.000000 0.000000 0.000000
vn 1.000000 0.000000 0.000000
vn -1.000000 -0.000000 0.000000
vn -1.000000 -0.000000 0.000000
vn -1.000000 -0.000000 0.000000
vn -1.000000 -0.000000 0.000000
vn 0.000000 1.000000 0.000000
vn 0.000000 1.000000 0.000000
vn 0.000000 1.000000 0.000000
vn 0.000000 1.000000 0.000000
vn 0.000000 0.430828 -0.902434
vn 0.000000 0.430828 -0.902434
vn 0.000000 0.430828 -0.902434
vn 0.000000 0.430828 -0.902434
vn 0.000000 -1.000000 0.000000
vn 0.000000 -1.000000 0.000000
vn 0.000000 0.430832 0.902432
vn 0.000000 0.430832 0.902432
vn 0.000000 0.430832 0.902432
vn 0.000000 0.430832 0.902432
vn 0.000000 1.000000 0.000000
vn 0.000000 1.000000 0.000000
vn 0.000000 1.000000 0.000000
vn 0.000000 1.000000 0.000000
vn 0.000000 0.510349 -0.859967
vn 0.000000 0.510349 -0.859967
vn 0.000000 0.510349 -0.859967
vn 0.000000 0.510349 -0.859967
vn 0.000000 -1.000000 0.000000
vn 0.000000 -1.000000 0.000000
vn 0.000000 0.510351 0.859966
vn 0.000000 0.510351 0.859966
vn 0.000000 0.510351 0.859966
vn 0.000000 0.510351 0.859966
vn 0.000000 1.000000 0.000000
vn 0.000000 1.000000 0.000000
vn 0.000000 1.000000 0.000000
vn 0.000000 1.000000 0.000000
vn 0.000000 0.430828 -0.902434
vn 0.000000 0.430828 -0.902434
vn 0.000000 0.430828 -0.902434
vn 0.000000 0.430828 -0.902434
vn 0.000000 -1.000000 0.000000
vn 0.000000 -1.000000 0.000000
vn 0.000000 0.430832 0.902432
vn 0.000000 0.430832 0.902432
vn 0.000000 0.430832 0.902432
vn 0.000000 0.430832 0.902432
vn 0.000000 1.000000 0.000000
vn 0.000000 1.000000 0.000000
vn 0.000000 1.000000 0.000000
vn 0.000000 1.000000 0.000000
vn 0.000000 0.510350 -0.859967
vn 0.000000 0.510350 -0.859967
vn 0.000000 0.510350 -0.859967
vn 0.000000 0.510350 -0.859967
vn 0.000000 -1.000000 0.000000
vn 0.000000 -1.000000 0.000000
vn 0.000000 0.510351 0.859966
vn 0.000000 0.510351 0.859966
vn 0.000000 0.510351 0.859966
vn 0.000000 0.510351 0.859966
vn -1.000000 -0.000000 0.000000
vn -1.000000 -0.000000 0.000000
vn -1.000000 -0.000000 0.000000
vn -1.000000 -0.000000 0.000000
vn 1.000000 -0.000000 0.000000
vn 1.000000 -0.000000 0.000000
vn 1.000000 -0.000000 0.000000
vn 1.000000 -0.000000 0.000000
vn 1.000000 -0.000001 0.000000
vn 1.000000 -0.000001 0.000000
vn -1.000000 -0.000000 0.000000
vn -1.000000 -0.000000 0.000000
vn 0.000000 0.859965 0.510353
vn 0.000000 0.859965 0.510353
vn 0.000000 0.859965 0.510353
vn 0.000000 0.859965 0.510353
vn 1.000000 -0.000001 0.000000
vn 1.000000 -0.000001 0.000000
vn 0.000000 0.859963 -0.510357
vn 0.000000 0.859963 -0.510357
vn 0.000000 0.859963 -0.510357
vn 0.000000 0.859963 -0.510357
vn -1.000000 0.000000 0.000000
vn -1.000000 0.000000 0.000000
vn -1.000000 0.000002 0.000000
vn -1.000000 0.000002 0.000000
vn -1.000000 0.000002 0.000000
vn -1.000000 0.000001 0.000000
vn 1.000000 -0.000000 0.000000
vn 1.000000 -0.000000 0.000000
vn 1.000000 -0.000000 0.000000
vn 1.000000 -0.000000 0.000000
vn 1.000000 0.000000 0.000000
vn 1.000000 0.000000 0.000000
vn -1.000000 0.000000 0.000000
vn -1.000000 0.000000 0.000000
vn 0.000000 0.859973 0.510340
vn 0.000000 0.859973 0.510340
vn 0.000000 0.859973 0.510340
vn 0.000000 0.859973 0.510340
vn 1.000000 -0.000000 0.000000
vn 1.000000 -0.000000 0.000000
vn 0.000000 0.859970 -0.510344
vn 0.000000 0.859970 -0.510344
vn 0.000000 0.859970 -0.510344
vn 0.000000 0.859970 -0.510344
vn -1.000000 -0.000001 0.000000
vn -1.000000 -0.000001 0.000000
f 1/73/1 12/74/2 9/75/3 3/76/4
f 3/41/5 9/42/6 10/43/7 5/44/8
f 5/77/9 10/78/10 11/79/11 7/80/12
f 7/45/13 11/46/14 12/47/15 1/48/16
f 2/1/17 8/2/18 6/3/19 4/4/20
f 7/5/21 1/6/22 3/7/23 5/8/24
f 25/57/25 26/58/26 27/59/27 28/60/28
f 29/81/29 28/82/30 27/83/31 30/84/32
f 12/47/15 11/46/14 15/49/33 16/50/34
f 25/85/35 31/86/36 32/87/37 26/88/38
f 13/61/39 17/62/40 18/63/41 14/64/42
f 15/89/43 14/90/44 18/91/45 19/92/46
f 16/50/34 15/49/33 19/51/47 20/52/48
f 13/93/49 16/94/50 20/95/51 17/96/52
f 33/65/53 34/66/54 35/67/55 36/68/56
f 37/97/57 36/98/58 35/99/59 38/100/60
f 20/52/48 19/51/47 23/53/61 24/54/62
f 33/101/63 39/102/64 40/103/65 34/104/66
f 21/69/67 4/70/68 6/71/69 22/72/70
f 23/105/71 22/106/72 6/107/73 8/108/74
f 24/54/62 23/53/61 8/55/75 2/56/76
f 21/109/77 24/110/78 2/111/79 4/112/80
f 13/9/81 14/10/82 27/11/83 26/12/84
f 10/17/85 9/18/86 25/19/87 28/20/88
f 11/23/89 10/17/85 28/20/88 29/24/90
f 14/10/82 15/13/91 30/14/92 27/11/83
f 15/113/93 11/114/94 29/115/95 30/116/96
f 9/18/86 12/21/97 31/22/98 25/19/87
f 12/117/99 16/118/100 32/119/101 31/120/102
f 16/15/103 13/9/81 26/12/84 32/16/104
f 21/25/105 22/26/106 35/27/107 34/28/108
f 18/33/109 17/34/110 33/35/111 36/36/112
f 19/39/113 18/33/109 36/36/112 37/40/114
f 22/26/106 23/29/115 38/30/116 35/27/107
f 23/121/117 19/122/118 37/123/119 38/124/120
f 17/34/110 20/37/121 39/38/122 33/35/111
f 20/125/123 24/126/124 40/127/125 39/128/126
f 24/31/127 21/25/105 34/28/108 40/32/128
