# This file uses centimeters as units for non-parametric coordinates.

v 0.423158 0.518517 0.748142
v 0.414959 0.519242 0.742229
v 0.404824 0.519242 0.742229
v 0.396625 0.518517 0.748142
v 0.393493 0.517343 0.757709
v 0.396625 0.516169 0.767276
v 0.404824 0.515444 0.773188
v 0.414959 0.515444 0.773188
v 0.423158 0.516169 0.767276
v 0.426290 0.517343 0.757709
v 0.422509 0.523489 0.749227
v 0.414711 0.524179 0.743604
v 0.405072 0.524179 0.743604
v 0.397274 0.523489 0.749227
v 0.394295 0.522373 0.758326
v 0.397274 0.521256 0.767424
v 0.405072 0.520567 0.773048
v 0.414711 0.520567 0.773048
v 0.422509 0.521256 0.767424
v 0.425487 0.522373 0.758326
v 0.420624 0.527860 0.751142
v 0.413991 0.528446 0.746359
v 0.405792 0.528446 0.746359
v 0.399158 0.527860 0.751142
v 0.396625 0.526910 0.758882
v 0.399158 0.525961 0.766622
v 0.405792 0.525374 0.771406
v 0.413991 0.525374 0.771406
v 0.420624 0.525961 0.766622
v 0.423158 0.526910 0.758882
v 0.417689 0.531201 0.753701
v 0.412870 0.531627 0.750225
v 0.406913 0.531627 0.750225
v 0.402093 0.531201 0.753701
v 0.400252 0.530511 0.759324
v 0.402093 0.529821 0.764947
v 0.406913 0.529395 0.768423
v 0.412870 0.529395 0.768423
v 0.417689 0.529821 0.764947
v 0.419530 0.530511 0.759324
v 0.413991 0.533186 0.756651
v 0.411457 0.533410 0.754824
v 0.408325 0.533410 0.754824
v 0.405792 0.533186 0.756651
v 0.404824 0.532823 0.759608
v 0.405792 0.532460 0.762564
v 0.408325 0.532236 0.764391
v 0.411457 0.532236 0.764391
v 0.413991 0.532460 0.762564
v 0.414959 0.532823 0.759608
v 0.409891 0.533619 0.759705
vt 0.000000 0.500000
vt 0.100000 0.500000
vt 0.200000 0.500000
vt 0.300000 0.500000
vt 0.400000 0.500000
vt 0.500000 0.500000
vt 0.600000 0.500000
vt 0.700000 0.500000
vt 0.800000 0.500000
vt 0.900000 0.500000
vt 1.000000 0.500000
vt 0.000000 0.600000
vt 0.100000 0.600000
vt 0.200000 0.600000
vt 0.300000 0.600000
vt 0.400000 0.600000
vt 0.500000 0.600000
vt 0.600000 0.600000
vt 0.700000 0.600000
vt 0.800000 0.600000
vt 0.900000 0.600000
vt 1.000000 0.600000
vt 0.000000 0.700000
vt 0.100000 0.700000
vt 0.200000 0.700000
vt 0.300000 0.700000
vt 0.400000 0.700000
vt 0.500000 0.700000
vt 0.600000 0.700000
vt 0.700000 0.700000
vt 0.800000 0.700000
vt 0.900000 0.700000
vt 1.000000 0.700000
vt 0.000000 0.800000
vt 0.100000 0.800000
vt 0.200000 0.800000
vt 0.300000 0.800000
vt 0.400000 0.800000
vt 0.500000 0.800000
vt 0.600000 0.800000
vt 0.700000 0.800000
vt 0.800000 0.800000
vt 0.900000 0.800000
vt 1.000000 0.800000
vt 0.000000 0.900000
vt 0.100000 0.900000
vt 0.200000 0.900000
vt 0.300000 0.900000
vt 0.400000 0.900000
vt 0.500000 0.900000
vt 0.600000 0.900000
vt 0.700000 0.900000
vt 0.800000 0.900000
vt 0.900000 0.900000
vt 1.000000 0.900000
vt 0.050000 1.000000
vt 0.150000 1.000000
vt 0.250000 1.000000
vt 0.350000 1.000000
vt 0.450000 1.000000
vt 0.550000 1.000000
vt 0.650000 1.000000
vt 0.750000 1.000000
vt 0.850000 1.000000
vt 0.950000 1.000000
vn 0.581228 0.245260 -0.775900
vn 0.581228 0.245260 -0.775900
vn 0.581228 0.245260 -0.775900
vn 0.581228 0.245260 -0.775900
vn -0.000000 0.268257 -0.963347
vn -0.000000 0.268257 -0.963347
vn -0.000000 0.268257 -0.963347
vn -0.000000 0.268257 -0.963347
vn -0.581228 0.245260 -0.775900
vn -0.581228 0.245260 -0.775900
vn -0.581228 0.245260 -0.775900
vn -0.581228 0.245260 -0.775900
vn -0.940447 0.185053 -0.285157
vn -0.940447 0.185053 -0.285157
vn -0.940447 0.185053 -0.285157
vn -0.940447 0.185053 -0.285157
vn -0.940447 0.110634 0.321434
vn -0.940447 0.110634 0.321434
vn -0.940447 0.110634 0.321434
vn -0.940447 0.110634 0.321434
vn -0.581228 0.050427 0.812177
vn -0.581228 0.050427 0.812177
vn -0.581228 0.050427 0.812177
vn -0.581228 0.050427 0.812177
vn 0.000000 0.027431 0.999624
vn 0.000000 0.027431 0.999624
vn 0.000000 0.027431 0.999624
vn 0.000000 0.027431 0.999624
vn 0.581228 0.050427 0.812177
vn 0.581228 0.050427 0.812177
vn 0.581228 0.050427 0.812177
vn 0.581228 0.050427 0.812177
vn 0.940447 0.110634 0.321434
vn 0.940447 0.110634 0.321434
vn 0.940447 0.110634 0.321434
vn 0.940447 0.110634 0.321434
vn 0.940447 0.185053 -0.285157
vn 0.940447 0.185053 -0.285157
vn 0.940447 0.185053 -0.285157
vn 0.940447 0.185053 -0.285157
vn 0.528952 0.521493 -0.669519
vn 0.528952 0.521493 -0.669519
vn 0.528952 0.521493 -0.669519
vn 0.528952 0.521493 -0.669519
vn -0.000000 0.542421 -0.840107
vn -0.000000 0.542421 -0.840107
vn -0.000000 0.542421 -0.840107
vn -0.000000 0.542421 -0.840107
vn -0.528952 0.521493 -0.669519
vn -0.528952 0.521493 -0.669519
vn -0.528952 0.521493 -0.669519
vn -0.528952 0.521493 -0.669519
vn -0.855862 0.466701 -0.222914
vn -0.855862 0.466701 -0.222914
vn -0.855862 0.466701 -0.222914
vn -0.855862 0.466701 -0.222914
vn -0.855862 0.398975 0.329119
vn -0.855862 0.398975 0.329119
vn -0.855862 0.398975 0.329119
vn -0.855862 0.398975 0.329119
vn -0.528952 0.344184 0.775724
vn -0.528952 0.344184 0.775724
vn -0.528952 0.344184 0.775724
vn -0.528952 0.344184 0.775724
vn 0.000000 0.323255 0.946312
vn 0.000000 0.323255 0.946312
vn 0.000000 0.323255 0.946312
vn 0.000000 0.323255 0.946312
vn 0.528952 0.344184 0.775724
vn 0.528952 0.344184 0.775724
vn 0.528952 0.344184 0.775724
vn 0.528952 0.344184 0.775724
vn 0.855862 0.398975 0.329119
vn 0.855862 0.398975 0.329119
vn 0.855862 0.398975 0.329119
vn 0.855862 0.398975 0.329119
vn 0.855862 0.466701 -0.222914
vn 0.855862 0.466701 -0.222914
vn 0.855862 0.466701 -0.222914
vn 0.855862 0.466701 -0.222914
vn 0.425919 0.755409 -0.497946
vn 0.425919 0.755409 -0.497946
vn 0.425919 0.755409 -0.497946
vn 0.425919 0.755409 -0.497946
vn -0.000000 0.772261 -0.635306
vn -0.000000 0.772261 -0.635306
vn -0.000000 0.772261 -0.635306
vn -0.000000 0.772261 -0.635306
vn -0.425919 0.755409 -0.497946
vn -0.425919 0.755409 -0.497946
vn -0.425919 0.755409 -0.497946
vn -0.425919 0.755409 -0.497946
vn -0.689152 0.711290 -0.138334
vn -0.689152 0.711290 -0.138334
vn -0.689152 0.711290 -0.138334
vn -0.689152 0.711290 -0.138334
vn -0.689152 0.656756 0.306172
vn -0.689152 0.656756 0.306172
vn -0.689152 0.656756 0.306172
vn -0.689152 0.656756 0.306172
vn -0.425919 0.612637 0.665784
vn -0.425919 0.612637 0.665784
vn -0.425919 0.612637 0.665784
vn -0.425919 0.612637 0.665784
vn 0.000000 0.595786 0.803144
vn 0.000000 0.595786 0.803144
vn 0.000000 0.595786 0.803144
vn 0.000000 0.595786 0.803144
vn 0.425919 0.612638 0.665784
vn 0.425919 0.612638 0.665784
vn 0.425919 0.612638 0.665784
vn 0.425919 0.612638 0.665784
vn 0.689152 0.656756 0.306172
vn 0.689152 0.656756 0.306172
vn 0.689152 0.656756 0.306172
vn 0.689152 0.656756 0.306172
vn 0.689152 0.711290 -0.138333
vn 0.689152 0.711290 -0.138333
vn 0.689152 0.711290 -0.138333
vn 0.689152 0.711290 -0.138333
vn 0.277578 0.921431 -0.271872
vn 0.277578 0.921431 -0.271872
vn 0.277578 0.921431 -0.271872
vn 0.277578 0.921431 -0.271872
vn -0.000000 0.932414 -0.361392
vn -0.000000 0.932414 -0.361392
vn -0.000000 0.932414 -0.361392
vn -0.000000 0.932414 -0.361392
vn -0.277578 0.921432 -0.271872
vn -0.277578 0.921432 -0.271872
vn -0.277578 0.921432 -0.271872
vn -0.277578 0.921432 -0.271872
vn -0.449130 0.892679 -0.037508
vn -0.449130 0.892679 -0.037508
vn -0.449130 0.892679 -0.037508
vn -0.449130 0.892679 -0.037508
vn -0.449130 0.857138 0.252183
vn -0.449130 0.857138 0.252183
vn -0.449130 0.857138 0.252183
vn -0.449130 0.857138 0.252183
vn -0.277578 0.828385 0.486548
vn -0.277578 0.828385 0.486548
vn -0.277578 0.828385 0.486548
vn -0.277578 0.828385 0.486548
vn 0.000000 0.817402 0.576067
vn 0.000000 0.817402 0.576067
vn 0.000000 0.817402 0.576067
vn 0.000000 0.817402 0.576067
vn 0.277578 0.828385 0.486548
vn 0.277578 0.828385 0.486548
vn 0.277578 0.828385 0.486548
vn 0.277578 0.828385 0.486548
vn 0.449130 0.857138 0.252183
vn 0.449130 0.857138 0.252183
vn 0.449130 0.857138 0.252183
vn 0.449130 0.857138 0.252183
vn 0.449130 0.892679 -0.037507
vn 0.449131 0.892679 -0.037507
vn 0.449131 0.892679 -0.037507
vn 0.449131 0.892679 -0.037507
vn 0.096557 0.995258 -0.011793
vn 0.096557 0.995258 -0.011793
vn 0.096557 0.995258 -0.011793
vn -0.000000 0.999078 -0.042933
vn -0.000000 0.999078 -0.042933
vn -0.000000 0.999078 -0.042933
vn -0.096557 0.995258 -0.011793
vn -0.096557 0.995258 -0.011793
vn -0.096557 0.995258 -0.011793
vn -0.156233 0.985256 0.069732
vn -0.156233 0.985256 0.069732
vn -0.156233 0.985256 0.069732
vn -0.156233 0.972893 0.170503
vn -0.156233 0.972893 0.170503
vn -0.156233 0.972893 0.170503
vn -0.096557 0.962891 0.252027
vn -0.096557 0.962891 0.252027
vn -0.096557 0.962891 0.252027
vn 0.000000 0.959071 0.283167
vn 0.000000 0.959071 0.283167
vn 0.000000 0.959071 0.283167
vn 0.096557 0.962891 0.252027
vn 0.096557 0.962891 0.252027
vn 0.096557 0.962891 0.252027
vn 0.156233 0.972893 0.170503
vn 0.156233 0.972893 0.170503
vn 0.156233 0.972893 0.170503
vn 0.156233 0.985256 0.069732
vn 0.156233 0.985256 0.069732
vn 0.156233 0.985256 0.069732
s off
f 1/1/1 2/2/2 12/13/3 11/12/4
f 2/2/5 3/3/6 13/14/7 12/13/8
f 3/3/9 4/4/10 14/15/11 13/14/12
f 4/4/13 5/5/14 15/16/15 14/15/16
f 5/5/17 6/6/18 16/17/19 15/16/20
f 6/6/21 7/7/22 17/18/23 16/17/24
f 7/7/25 8/8/26 18/19/27 17/18/28
f 8/8/29 9/9/30 19/20/31 18/19/32
f 9/9/33 10/10/34 20/21/35 19/20/36
f 10/10/37 1/11/38 11/22/39 20/21/40
f 11/12/41 12/13/42 22/24/43 21/23/44
f 12/13/45 13/14/46 23/25/47 22/24/48
f 13/14/49 14/15/50 24/26/51 23/25/52
f 14/15/53 15/16/54 25/27/55 24/26/56
f 15/16/57 16/17/58 26/28/59 25/27/60
f 16/17/61 17/18/62 27/29/63 26/28/64
f 17/18/65 18/19/66 28/30/67 27/29/68
f 18/19/69 19/20/70 29/31/71 28/30/72
f 19/20/73 20/21/74 30/32/75 29/31/76
f 20/21/77 11/22/78 21/33/79 30/32/80
f 21/23/81 22/24/82 32/35/83 31/34/84
f 22/24/85 23/25/86 33/36/87 32/35/88
f 23/25/89 24/26/90 34/37/91 33/36/92
f 24/26/93 25/27/94 35/38/95 34/37/96
f 25/27/97 26/28/98 36/39/99 35/38/100
f 26/28/101 27/29/102 37/40/103 36/39/104
f 27/29/105 28/30/106 38/41/107 37/40/108
f 28/30/109 29/31/110 39/42/111 38/41/112
f 29/31/113 30/32/114 40/43/115 39/42/116
f 30/32/117 21/33/118 31/44/119 40/43/120
f 31/34/121 32/35/122 42/46/123 41/45/124
f 32/35/125 33/36/126 43/47/127 42/46/128
f 33/36/129 34/37/130 44/48/131 43/47/132
f 34/37/133 35/38/134 45/49/135 44/48/136
f 35/38/137 36/39/138 46/50/139 45/49/140
f 36/39/141 37/40/142 47/51/143 46/50/144
f 37/40/145 38/41/146 48/52/147 47/51/148
f 38/41/149 39/42/150 49/53/151 48/52/152
f 39/42/153 40/43/154 50/54/155 49/53/156
f 40/43/157 31/44/158 41/55/159 50/54/160
f 41/45/161 42/46/162 51/56/163
f 42/46/164 43/47/165 51/57/166
f 43/47/167 44/48/168 51/58/169
f 44/48/170 45/49/171 51/59/172
f 45/49/173 46/50/174 51/60/175
f 46/50/176 47/51/177 51/61/178
f 47/51/179 48/52/180 51/62/181
f 48/52/182 49/53/183 51/63/184
f 49/53/185 50/54/186 51/64/187
f 50/54/188 41/55/189 51/65/190
