# This file uses centimeters as units for non-parametric coordinates.

v 0.154109 0.513417 0.621355
v 0.180006 0.513417 0.621355
v 0.180006 0.592043 0.267411
v 0.154109 0.592043 0.267411
v 0.141397 0.513417 0.621355
v 0.141397 0.592043 0.267411
v 0.117299 0.513417 0.621355
v 0.117299 0.592043 0.267411
v 0.199736 0.513417 0.621355
v 0.199736 0.592043 0.267411
v 0.394639 0.513417 0.621355
v 0.442276 0.513417 0.621355
v 0.442276 0.592043 0.267411
v 0.394639 0.592043 0.267411
v 0.072292 0.513417 0.621355
v 0.072292 0.592043 0.267411
v 0.327308 0.513417 0.621355
v 0.327308 0.592043 0.267411
vt 0.001906 0.777754
vt 0.001906 0.708036
vt 0.954741 0.708036
vt 0.954741 0.777754
vt 0.001906 0.654922
vt 0.954741 0.654922
vt 0.001906 0.811974
vt 0.954741 0.811974
vt 0.001906 0.311491
vt 0.954741 0.311491
vt 0.001906 0.876847
vt 0.954741 0.876847
vt 0.001906 0.130233
vt 0.954741 0.130233
vt 0.001906 0.998008
vt 0.954741 0.998008
vt 0.001906 0.001992
vt 0.954741 0.001992
vn 0.000000 0.976203 0.216858
vn -0.000001 0.976203 0.216858
vn -0.000001 0.976203 0.216858
vn -0.000000 0.976203 0.216858
vn 0.000000 0.976203 0.216858
vn 0.000000 0.976203 0.216858
vn -0.000001 0.976203 0.216858
vn -0.000001 0.976203 0.216858
vn 0.000000 0.976203 0.216858
vn 0.000000 0.976203 0.216858
vn 0.000000 0.976203 0.216858
vn 0.000000 0.976203 0.216858
vn 0.000000 0.976203 0.216858
vn 0.000000 0.976203 0.216858
vn 0.000000 0.976203 0.216858
vn 0.000000 0.976203 0.216858
vn 0.000000 0.976203 0.216858
vn 0.000000 0.976203 0.216858
s 1
f 1/1/1 2/2/2 3/3/3 4/4/4
f 5/7/5 1/1/1 4/4/4 6/8/6
f 7/11/7 5/7/5 6/8/6 8/12/8
f 2/2/2 9/5/9 10/6/10 3/3/3
f 11/13/11 12/17/12 13/18/13 14/14/14
f 15/15/15 7/11/7 8/12/8 16/16/16
f 9/5/9 17/9/17 18/10/18 10/6/10
f 18/10/18 17/9/17 11/13/11 14/14/14
