# This file uses centimeters as units for non-parametric coordinates.

v 52.860447 0.000000 39.937805
v -52.860447 0.000000 39.937805
v 57.192242 -36.404041 0.242073
v -57.192112 -36.404041 0.242073
v 52.860447 -21.600241 39.937805
v 52.873619 -22.412661 39.831909
v 52.912258 -23.170834 39.521248
v 52.973785 -23.824259 39.026569
v 53.054066 -24.329216 38.381065
v 53.147701 -24.651743 37.628242
v -53.147694 -24.651743 37.628242
v -53.054062 -24.329216 38.381065
v -52.973782 -23.824259 39.026569
v -52.912258 -23.170834 39.521248
v -52.873619 -22.412661 39.831909
v -52.860447 -21.600241 39.937805
v -57.098656 -35.055771 1.286285
v 57.098785 -35.055771 1.286285
v -57.155956 -35.598194 0.820412
v 57.156094 -35.598194 0.820412
vt 0.312873 0.746812
vt 0.297517 0.199366
vt 0.711259 0.199366
vt 0.694319 0.957575
vt 0.314371 0.957068
vt 0.694898 0.781810
vt 0.695905 0.747292
vt 0.313871 0.781301
vt 0.694982 0.774313
vt 0.695066 0.766809
vt 0.695151 0.759290
vt 0.695528 0.753294
vt 0.313074 0.753730
vt 0.313274 0.760641
vt 0.313473 0.767539
vt 0.313672 0.774424
vt 0.297827 0.204288
vt 0.710949 0.204298
vt 0.297637 0.201270
vt 0.711139 0.201274
vn 0.000000 0.000000 1.000000
vn 0.000000 0.000000 1.000000
vn 0.000000 -0.004772 0.999989
vn 0.000000 -0.004772 0.999989
vn 0.000000 -0.960761 0.277378
vn 0.000000 -0.960761 0.277378
vn 0.000000 -0.958033 0.286660
vn 0.000000 -0.958032 0.286660
vn 0.000000 -0.865066 0.501658
vn 0.000000 -0.865066 0.501658
vn 0.000000 -0.706591 0.707622
vn 0.000000 -0.706591 0.707622
vn 0.000000 -0.499946 0.866057
vn 0.000000 -0.499946 0.866057
vn 0.000000 -0.258899 0.965904
vn 0.000000 -0.258899 0.965904
vn 0.000000 -0.611049 0.791593
vn 0.000000 -0.611049 0.791593
vn 0.000000 -0.973616 0.228193
vn 0.000000 -0.973616 0.228193
f 1/4/1 2/5/2 16/8/3 5/6/4
f 10/7/5 11/1/6 17/17/7 18/18/8
f 10/7/5 9/12/9 12/13/10 11/1/6
f 9/12/9 8/11/11 13/14/12 12/13/10
f 8/11/11 7/10/13 14/15/14 13/14/12
f 7/10/13 6/9/15 15/16/16 14/15/14
f 6/9/15 5/6/4 16/8/3 15/16/16
f 18/18/8 17/17/7 19/19/17 20/20/18
f 20/20/18 19/19/17 4/2/19 3/3/20
