# This file uses centimeters as units for non-parametric coordinates.

v 0.559049 1.403402 0.044119
v 0.522820 1.411671 0.044119
v 0.493767 1.388501 0.044119
v 0.493767 1.351340 0.044119
v 0.522820 1.328171 0.044119
v 0.559049 1.336440 0.044119
v 0.575173 1.369921 0.044119
v 0.559049 1.403402 0.068137
v 0.522820 1.411671 0.068137
v 0.493767 1.388501 0.068137
v 0.493767 1.351340 0.068137
v 0.522820 1.328171 0.068137
v 0.559049 1.336440 0.068137
v 0.575173 1.369921 0.068137
v 0.532350 1.369921 0.044119
v 0.551208 1.392721 0.073634
v 0.526537 1.398352 0.073634
v 0.533026 1.369921 0.073634
v 0.506752 1.382574 0.073634
v 0.506752 1.357268 0.073634
v 0.526537 1.341490 0.073634
v 0.551208 1.347121 0.073634
v 0.562188 1.369921 0.073634
v 1.157167 1.403402 0.044119
v 1.120938 1.411671 0.044119
v 1.091885 1.388501 0.044119
v 1.091885 1.351340 0.044119
v 1.120938 1.328171 0.044119
v 1.157167 1.336440 0.044119
v 1.173291 1.369921 0.044119
v 1.157167 1.403402 0.068137
v 1.120938 1.411671 0.068137
v 1.091885 1.388501 0.068137
v 1.091885 1.351340 0.068137
v 1.120938 1.328171 0.068137
v 1.157167 1.336440 0.068137
v 1.173291 1.369921 0.068137
v 1.130468 1.369921 0.044119
v 1.149326 1.392721 0.073634
v 1.124654 1.398352 0.073634
v 1.131144 1.369921 0.073634
v 1.104869 1.382574 0.073634
v 1.104869 1.357268 0.073634
v 1.124654 1.341490 0.073634
v 1.149326 1.347121 0.073634
v 1.160306 1.369921 0.073634
v 1.356539 1.403402 0.044119
v 1.320310 1.411671 0.044119
v 1.291257 1.388501 0.044119
v 1.291257 1.351340 0.044119
v 1.320310 1.328171 0.044119
v 1.356539 1.336440 0.044119
v 1.372664 1.369921 0.044119
v 1.356539 1.403402 0.068137
v 1.320310 1.411671 0.068137
v 1.291257 1.388501 0.068137
v 1.291257 1.351340 0.068137
v 1.320310 1.328171 0.068137
v 1.356539 1.336440 0.068137
v 1.372664 1.369921 0.068137
v 1.329840 1.369921 0.044119
v 1.348698 1.392721 0.073634
v 1.324027 1.398352 0.073634
v 1.330516 1.369921 0.073634
v 1.304242 1.382574 0.073634
v 1.304242 1.357268 0.073634
v 1.324027 1.341490 0.073634
v 1.348698 1.347121 0.073634
v 1.359678 1.369921 0.073634
v 1.755284 1.403402 0.044119
v 1.719055 1.411671 0.044119
v 1.690002 1.388501 0.044119
v 1.690002 1.351340 0.044119
v 1.719055 1.328171 0.044119
v 1.755284 1.336440 0.044119
v 1.771409 1.369921 0.044119
v 1.755284 1.403402 0.068137
v 1.719055 1.411671 0.068137
v 1.690002 1.388501 0.068137
v 1.690002 1.351340 0.068137
v 1.719055 1.328171 0.068137
v 1.755284 1.336440 0.068137
v 1.771409 1.369921 0.068137
v 1.728585 1.369921 0.044119
v 1.747443 1.392721 0.073634
v 1.722772 1.398352 0.073634
v 1.729262 1.369921 0.073634
v 1.702987 1.382574 0.073634
v 1.702987 1.357268 0.073634
v 1.722772 1.341490 0.073634
v 1.747443 1.347121 0.073634
v 1.758423 1.369921 0.073634
vt 0.375000 0.312500
vt 0.410714 0.312500
vt 0.410714 0.688440
vt 0.375000 0.688440
vt 0.446429 0.312500
vt 0.446429 0.688440
vt 0.482143 0.312500
vt 0.482143 0.688440
vt 0.517857 0.312500
vt 0.517857 0.688440
vt 0.553571 0.312500
vt 0.553571 0.688440
vt 0.589286 0.312500
vt 0.589286 0.688440
vt 0.625000 0.312500
vt 0.625000 0.688440
vt 0.465231 0.003918
vt 0.597420 0.034089
vt 0.500000 0.150000
vt 0.359224 0.088456
vt 0.359224 0.224044
vt 0.465231 0.308582
vt 0.597420 0.278411
vt 0.656250 0.156250
vt 0.597420 0.965911
vt 0.465231 0.996082
vt 0.500000 0.837500
vt 0.359224 0.911544
vt 0.359224 0.775956
vt 0.465231 0.691418
vt 0.597420 0.721589
vt 0.656250 0.843750
vt 0.597420 0.965911
vt 0.465231 0.996082
vt 0.359224 0.911544
vt 0.359224 0.775956
vt 0.465231 0.691418
vt 0.597420 0.721589
vt 0.656250 0.843750
vt 0.375000 0.312500
vt 0.410714 0.312500
vt 0.410714 0.688440
vt 0.375000 0.688440
vt 0.446429 0.312500
vt 0.446429 0.688440
vt 0.482143 0.312500
vt 0.482143 0.688440
vt 0.517857 0.312500
vt 0.517857 0.688440
vt 0.553571 0.312500
vt 0.553571 0.688440
vt 0.589286 0.312500
vt 0.589286 0.688440
vt 0.625000 0.312500
vt 0.625000 0.688440
vt 0.465231 0.003918
vt 0.597420 0.034089
vt 0.500000 0.150000
vt 0.359224 0.088456
vt 0.359224 0.224044
vt 0.465231 0.308582
vt 0.597420 0.278411
vt 0.656250 0.156250
vt 0.597420 0.965911
vt 0.465231 0.996082
vt 0.500000 0.837500
vt 0.359224 0.911544
vt 0.359224 0.775956
vt 0.465231 0.691418
vt 0.597420 0.721589
vt 0.656250 0.843750
vt 0.597420 0.965911
vt 0.465231 0.996082
vt 0.359224 0.911544
vt 0.359224 0.775956
vt 0.465231 0.691418
vt 0.597420 0.721589
vt 0.656250 0.843750
vt 0.375000 0.312500
vt 0.410714 0.312500
vt 0.410714 0.688440
vt 0.375000 0.688440
vt 0.446429 0.312500
vt 0.446429 0.688440
vt 0.482143 0.312500
vt 0.482143 0.688440
vt 0.517857 0.312500
vt 0.517857 0.688440
vt 0.553571 0.312500
vt 0.553571 0.688440
vt 0.589286 0.312500
vt 0.589286 0.688440
vt 0.625000 0.312500
vt 0.625000 0.688440
vt 0.465231 0.003918
vt 0.597420 0.034089
vt 0.500000 0.150000
vt 0.359224 0.088456
vt 0.359224 0.224044
vt 0.465231 0.308582
vt 0.597420 0.278411
vt 0.656250 0.156250
vt 0.597420 0.965911
vt 0.465231 0.996082
vt 0.500000 0.837500
vt 0.359224 0.911544
vt 0.359224 0.775956
vt 0.465231 0.691418
vt 0.597420 0.721589
vt 0.656250 0.843750
vt 0.597420 0.965911
vt 0.465231 0.996082
vt 0.359224 0.911544
vt 0.359224 0.775956
vt 0.465231 0.691418
vt 0.597420 0.721589
vt 0.656250 0.843750
vt 0.375000 0.312500
vt 0.410714 0.312500
vt 0.410714 0.688440
vt 0.375000 0.688440
vt 0.446429 0.312500
vt 0.446429 0.688440
vt 0.482143 0.312500
vt 0.482143 0.688440
vt 0.517857 0.312500
vt 0.517857 0.688440
vt 0.553571 0.312500
vt 0.553571 0.688440
vt 0.589286 0.312500
vt 0.589286 0.688440
vt 0.625000 0.312500
vt 0.625000 0.688440
vt 0.465231 0.003918
vt 0.597420 0.034089
vt 0.500000 0.150000
vt 0.359224 0.088456
vt 0.359224 0.224044
vt 0.465231 0.308582
vt 0.597420 0.278411
vt 0.656250 0.156250
vt 0.597420 0.965911
vt 0.465231 0.996082
vt 0.500000 0.837500
vt 0.359224 0.911544
vt 0.359224 0.775956
vt 0.465231 0.691418
vt 0.597420 0.721589
vt 0.656250 0.843750
vt 0.597420 0.965911
vt 0.465231 0.996082
vt 0.359224 0.911544
vt 0.359224 0.775956
vt 0.465231 0.691418
vt 0.597420 0.721589
vt 0.656250 0.843750
vn 0.222515 0.974929 0.000000
vn 0.222515 0.974929 0.000000
vn 0.222515 0.974929 0.000000
vn 0.222515 0.974929 0.000000
vn -0.623496 0.781827 0.000000
vn -0.623496 0.781827 0.000000
vn -0.623496 0.781827 0.000000
vn -0.623496 0.781827 0.000000
vn -1.000000 0.000000 0.000000
vn -1.000000 0.000000 0.000000
vn -1.000000 0.000000 0.000000
vn -1.000000 0.000000 0.000000
vn -0.623492 -0.781830 0.000000
vn -0.623492 -0.781830 0.000000
vn -0.623492 -0.781830 0.000000
vn -0.623492 -0.781830 0.000000
vn 0.222515 -0.974929 0.000000
vn 0.222515 -0.974929 0.000000
vn 0.222515 -0.974929 0.000000
vn 0.222515 -0.974929 0.000000
vn 0.900961 -0.433900 0.000000
vn 0.900961 -0.433900 0.000000
vn 0.900961 -0.433900 0.000000
vn 0.900961 -0.433900 0.000000
vn 0.900962 0.433897 0.000000
vn 0.900962 0.433897 0.000000
vn 0.900962 0.433897 0.000000
vn 0.900962 0.433897 0.000000
vn 0.000000 0.000000 -1.000000
vn 0.000000 0.000000 -1.000000
vn 0.000000 0.000000 -1.000000
vn 0.000000 0.000000 -1.000000
vn 0.000000 0.000000 -1.000000
vn 0.000000 0.000000 -1.000000
vn 0.000000 0.000000 -1.000000
vn 0.000000 0.000000 -1.000000
vn 0.000000 0.000000 1.000000
vn 0.000000 0.000000 1.000000
vn 0.000000 0.000000 1.000000
vn 0.000000 0.000000 1.000000
vn 0.000000 0.000000 1.000000
vn 0.000000 0.000000 1.000000
vn 0.000000 0.000000 1.000000
vn 0.000000 0.000000 1.000000
vn 0.091675 0.401660 0.911189
vn 0.091675 0.401660 0.911189
vn 0.091675 0.401660 0.911189
vn 0.091675 0.401660 0.911189
vn -0.247176 0.309944 0.918063
vn -0.247176 0.309944 0.918063
vn -0.247176 0.309944 0.918063
vn -0.247176 0.309944 0.918063
vn -0.389853 0.000000 0.920877
vn -0.389853 0.000000 0.920877
vn -0.389853 0.000000 0.920877
vn -0.389853 0.000000 0.920877
vn -0.247175 -0.309947 0.918062
vn -0.247175 -0.309947 0.918062
vn -0.247175 -0.309947 0.918062
vn -0.247175 -0.309947 0.918062
vn 0.091673 -0.401657 0.911190
vn 0.091673 -0.401657 0.911190
vn 0.091673 -0.401657 0.911190
vn 0.091673 -0.401657 0.911190
vn 0.383151 -0.184522 0.905068
vn 0.383151 -0.184522 0.905068
vn 0.383151 -0.184522 0.905068
vn 0.383151 -0.184522 0.905068
vn 0.383150 0.184520 0.905068
vn 0.383150 0.184520 0.905068
vn 0.383150 0.184520 0.905068
vn 0.383150 0.184520 0.905068
vn 0.222515 0.974929 0.000000
vn 0.222515 0.974929 0.000000
vn 0.222515 0.974929 0.000000
vn 0.222515 0.974929 0.000000
vn -0.623496 0.781827 0.000000
vn -0.623496 0.781827 0.000000
vn -0.623496 0.781827 0.000000
vn -0.623496 0.781827 0.000000
vn -1.000000 0.000000 0.000000
vn -1.000000 0.000000 0.000000
vn -1.000000 0.000000 0.000000
vn -1.000000 0.000000 0.000000
vn -0.623492 -0.781830 0.000000
vn -0.623492 -0.781830 0.000000
vn -0.623492 -0.781830 0.000000
vn -0.623492 -0.781830 0.000000
vn 0.222515 -0.974929 0.000000
vn 0.222515 -0.974929 0.000000
vn 0.222515 -0.974929 0.000000
vn 0.222515 -0.974929 0.000000
vn 0.900961 -0.433900 0.000000
vn 0.900961 -0.433900 0.000000
vn 0.900961 -0.433900 0.000000
vn 0.900961 -0.433900 0.000000
vn 0.900962 0.433897 0.000000
vn 0.900962 0.433897 0.000000
vn 0.900962 0.433897 0.000000
vn 0.900962 0.433897 0.000000
vn 0.000000 0.000000 -1.000000
vn 0.000000 0.000000 -1.000000
vn 0.000000 0.000000 -1.000000
vn 0.000000 0.000000 -1.000000
vn 0.000000 0.000000 -1.000000
vn 0.000000 0.000000 -1.000000
vn 0.000000 0.000000 -1.000000
vn 0.000000 0.000000 -1.000000
vn 0.000000 0.000000 1.000000
vn 0.000000 0.000000 1.000000
vn 0.000000 0.000000 1.000000
vn 0.000000 0.000000 1.000000
vn 0.000000 0.000000 1.000000
vn 0.000000 0.000000 1.000000
vn 0.000000 0.000000 1.000000
vn 0.000000 0.000000 1.000000
vn 0.091675 0.401660 0.911189
vn 0.091675 0.401660 0.911189
vn 0.091675 0.401660 0.911189
vn 0.091675 0.401660 0.911189
vn -0.247176 0.309944 0.918063
vn -0.247176 0.309944 0.918063
vn -0.247176 0.309944 0.918063
vn -0.247176 0.309944 0.918063
vn -0.389853 0.000000 0.920877
vn -0.389853 0.000000 0.920877
vn -0.389853 0.000000 0.920877
vn -0.389853 0.000000 0.920877
vn -0.247173 -0.309945 0.918063
vn -0.247173 -0.309945 0.918063
vn -0.247173 -0.309945 0.918063
vn -0.247173 -0.309945 0.918063
vn 0.091673 -0.401658 0.911190
vn 0.091673 -0.401658 0.911190
vn 0.091673 -0.401658 0.911190
vn 0.091673 -0.401658 0.911190
vn 0.383151 -0.184522 0.905068
vn 0.383151 -0.184522 0.905068
vn 0.383151 -0.184522 0.905068
vn 0.383151 -0.184522 0.905068
vn 0.383150 0.184520 0.905068
vn 0.383150 0.184520 0.905068
vn 0.383150 0.184520 0.905068
vn 0.383150 0.184520 0.905068
vn 0.222515 0.974929 0.000000
vn 0.222515 0.974929 0.000000
vn 0.222515 0.974929 0.000000
vn 0.222515 0.974929 0.000000
vn -0.623496 0.781827 0.000000
vn -0.623496 0.781827 0.000000
vn -0.623496 0.781827 0.000000
vn -0.623496 0.781827 0.000000
vn -1.000000 0.000000 0.000000
vn -1.000000 0.000000 0.000000
vn -1.000000 0.000000 0.000000
vn -1.000000 0.000000 0.000000
vn -0.623492 -0.781830 0.000000
vn -0.623492 -0.781830 0.000000
vn -0.623492 -0.781830 0.000000
vn -0.623492 -0.781830 0.000000
vn 0.222515 -0.974929 0.000000
vn 0.222515 -0.974929 0.000000
vn 0.222515 -0.974929 0.000000
vn 0.222515 -0.974929 0.000000
vn 0.900961 -0.433900 0.000000
vn 0.900961 -0.433900 0.000000
vn 0.900961 -0.433900 0.000000
vn 0.900961 -0.433900 0.000000
vn 0.900962 0.433897 0.000000
vn 0.900962 0.433897 0.000000
vn 0.900962 0.433897 0.000000
vn 0.900962 0.433897 0.000000
vn 0.000000 0.000000 -1.000000
vn 0.000000 0.000000 -1.000000
vn 0.000000 0.000000 -1.000000
vn 0.000000 0.000000 -1.000000
vn 0.000000 0.000000 -1.000000
vn 0.000000 0.000000 -1.000000
vn 0.000000 0.000000 -1.000000
vn 0.000000 0.000000 -1.000000
vn 0.000000 0.000000 1.000000
vn 0.000000 0.000000 1.000000
vn 0.000000 0.000000 1.000000
vn 0.000000 0.000000 1.000000
vn 0.000000 0.000000 1.000000
vn 0.000000 0.000000 1.000000
vn 0.000000 0.000000 1.000000
vn 0.000000 0.000000 1.000000
vn 0.091675 0.401660 0.911189
vn 0.091675 0.401660 0.911189
vn 0.091675 0.401660 0.911189
vn 0.091675 0.401660 0.911189
vn -0.247176 0.309944 0.918063
vn -0.247176 0.309944 0.918063
vn -0.247176 0.309944 0.918063
vn -0.247176 0.309944 0.918063
vn -0.389853 0.000000 0.920877
vn -0.389853 0.000000 0.920877
vn -0.389853 0.000000 0.920877
vn -0.389853 0.000000 0.920877
vn -0.247173 -0.309945 0.918063
vn -0.247173 -0.309945 0.918063
vn -0.247173 -0.309945 0.918063
vn -0.247173 -0.309945 0.918063
vn 0.091673 -0.401658 0.911190
vn 0.091673 -0.401658 0.911190
vn 0.091673 -0.401658 0.911190
vn 0.091673 -0.401658 0.911190
vn 0.383151 -0.184522 0.905068
vn 0.383151 -0.184522 0.905068
vn 0.383151 -0.184522 0.905068
vn 0.383151 -0.184522 0.905068
vn 0.383150 0.184520 0.905068
vn 0.383150 0.184520 0.905068
vn 0.383150 0.184520 0.905068
vn 0.383150 0.184520 0.905068
vn 0.222515 0.974929 0.000000
vn 0.222515 0.974929 0.000000
vn 0.222515 0.974929 0.000000
vn 0.222515 0.974929 0.000000
vn -0.623496 0.781827 0.000000
vn -0.623496 0.781827 0.000000
vn -0.623496 0.781827 0.000000
vn -0.623496 0.781827 0.000000
vn -1.000000 0.000000 0.000000
vn -1.000000 0.000000 0.000000
vn -1.000000 0.000000 0.000000
vn -1.000000 0.000000 0.000000
vn -0.623492 -0.781830 0.000000
vn -0.623492 -0.781830 0.000000
vn -0.623492 -0.781830 0.000000
vn -0.623492 -0.781830 0.000000
vn 0.222515 -0.974929 0.000000
vn 0.222515 -0.974929 0.000000
vn 0.222515 -0.974929 0.000000
vn 0.222515 -0.974929 0.000000
vn 0.900961 -0.433900 0.000000
vn 0.900961 -0.433900 0.000000
vn 0.900961 -0.433900 0.000000
vn 0.900961 -0.433900 0.000000
vn 0.900962 0.433897 0.000000
vn 0.900962 0.433897 0.000000
vn 0.900962 0.433897 0.000000
vn 0.900962 0.433897 0.000000
vn 0.000000 0.000000 -1.000000
vn 0.000000 0.000000 -1.000000
vn 0.000000 0.000000 -1.000000
vn 0.000000 0.000000 -1.000000
vn 0.000000 0.000000 -1.000000
vn 0.000000 0.000000 -1.000000
vn 0.000000 0.000000 -1.000000
vn 0.000000 0.000000 -1.000000
vn 0.000000 0.000000 1.000000
vn 0.000000 0.000000 1.000000
vn 0.000000 0.000000 1.000000
vn 0.000000 0.000000 1.000000
vn 0.000000 0.000000 1.000000
vn 0.000000 0.000000 1.000000
vn 0.000000 0.000000 1.000000
vn 0.000000 0.000000 1.000000
vn 0.091675 0.401659 0.911189
vn 0.091675 0.401659 0.911189
vn 0.091675 0.401659 0.911189
vn 0.091675 0.401659 0.911189
vn -0.247176 0.309944 0.918063
vn -0.247176 0.309944 0.918063
vn -0.247176 0.309944 0.918063
vn -0.247176 0.309944 0.918063
vn -0.389853 0.000000 0.920877
vn -0.389853 0.000000 0.920877
vn -0.389853 0.000000 0.920877
vn -0.389853 0.000000 0.920877
vn -0.247173 -0.309945 0.918063
vn -0.247173 -0.309945 0.918063
vn -0.247173 -0.309945 0.918063
vn -0.247173 -0.309945 0.918063
vn 0.091673 -0.401657 0.911190
vn 0.091673 -0.401657 0.911190
vn 0.091673 -0.401657 0.911190
vn 0.091673 -0.401657 0.911190
vn 0.383151 -0.184522 0.905068
vn 0.383151 -0.184522 0.905068
vn 0.383151 -0.184522 0.905068
vn 0.383151 -0.184522 0.905068
vn 0.383150 0.184520 0.905068
vn 0.383150 0.184520 0.905068
vn 0.383150 0.184520 0.905068
vn 0.383150 0.184520 0.905068
s off
f 1/1/1 2/2/2 9/3/3 8/4/4
f 2/2/5 3/5/6 10/6/7 9/3/8
f 3/5/9 4/7/10 11/8/11 10/6/12
f 4/7/13 5/9/14 12/10/15 11/8/16
f 5/9/17 6/11/18 13/12/19 12/10/20
f 6/11/21 7/13/22 14/14/23 13/12/24
f 7/13/25 1/15/26 8/16/27 14/14/28
s 1
f 2/17/29 1/18/30 15/19/31
f 3/20/32 2/17/29 15/19/31
f 4/21/33 3/20/32 15/19/31
f 5/22/34 4/21/33 15/19/31
f 6/23/35 5/22/34 15/19/31
f 7/24/36 6/23/35 15/19/31
f 1/18/30 7/24/36 15/19/31
s 2
f 16/25/37 17/26/38 18/27/39
f 17/26/38 19/28/40 18/27/39
f 19/28/40 20/29/41 18/27/39
f 20/29/41 21/30/42 18/27/39
f 21/30/42 22/31/43 18/27/39
f 22/31/43 23/32/44 18/27/39
f 23/32/44 16/25/37 18/27/39
s off
f 8/33/45 9/34/46 17/26/47 16/25/48
f 9/34/49 10/35/50 19/28/51 17/26/52
f 10/35/53 11/36/54 20/29/55 19/28/56
f 11/36/57 12/37/58 21/30/59 20/29/60
f 12/37/61 13/38/62 22/31/63 21/30/64
f 13/38/65 14/39/66 23/32/67 22/31/68
f 14/39/69 8/33/70 16/25/71 23/32/72
f 24/40/73 25/41/74 32/42/75 31/43/76
f 25/41/77 26/44/78 33/45/79 32/42/80
f 26/44/81 27/46/82 34/47/83 33/45/84
f 27/46/85 28/48/86 35/49/87 34/47/88
f 28/48/89 29/50/90 36/51/91 35/49/92
f 29/50/93 30/52/94 37/53/95 36/51/96
f 30/52/97 24/54/98 31/55/99 37/53/100
s 3
f 25/56/101 24/57/102 38/58/103
f 26/59/104 25/56/101 38/58/103
f 27/60/105 26/59/104 38/58/103
f 28/61/106 27/60/105 38/58/103
f 29/62/107 28/61/106 38/58/103
f 30/63/108 29/62/107 38/58/103
f 24/57/102 30/63/108 38/58/103
s 4
f 39/64/109 40/65/110 41/66/111
f 40/65/110 42/67/112 41/66/111
f 42/67/112 43/68/113 41/66/111
f 43/68/113 44/69/114 41/66/111
f 44/69/114 45/70/115 41/66/111
f 45/70/115 46/71/116 41/66/111
f 46/71/116 39/64/109 41/66/111
s off
f 31/72/117 32/73/118 40/65/119 39/64/120
f 32/73/121 33/74/122 42/67/123 40/65/124
f 33/74/125 34/75/126 43/68/127 42/67/128
f 34/75/129 35/76/130 44/69/131 43/68/132
f 35/76/133 36/77/134 45/70/135 44/69/136
f 36/77/137 37/78/138 46/71/139 45/70/140
f 37/78/141 31/72/142 39/64/143 46/71/144
f 47/79/145 48/80/146 55/81/147 54/82/148
f 48/80/149 49/83/150 56/84/151 55/81/152
f 49/83/153 50/85/154 57/86/155 56/84/156
f 50/85/157 51/87/158 58/88/159 57/86/160
f 51/87/161 52/89/162 59/90/163 58/88/164
f 52/89/165 53/91/166 60/92/167 59/90/168
f 53/91/169 47/93/170 54/94/171 60/92/172
s 5
f 48/95/173 47/96/174 61/97/175
f 49/98/176 48/95/173 61/97/175
f 50/99/177 49/98/176 61/97/175
f 51/100/178 50/99/177 61/97/175
f 52/101/179 51/100/178 61/97/175
f 53/102/180 52/101/179 61/97/175
f 47/96/174 53/102/180 61/97/175
s 6
f 62/103/181 63/104/182 64/105/183
f 63/104/182 65/106/184 64/105/183
f 65/106/184 66/107/185 64/105/183
f 66/107/185 67/108/186 64/105/183
f 67/108/186 68/109/187 64/105/183
f 68/109/187 69/110/188 64/105/183
f 69/110/188 62/103/181 64/105/183
s off
f 54/111/189 55/112/190 63/104/191 62/103/192
f 55/112/193 56/113/194 65/106/195 63/104/196
f 56/113/197 57/114/198 66/107/199 65/106/200
f 57/114/201 58/115/202 67/108/203 66/107/204
f 58/115/205 59/116/206 68/109/207 67/108/208
f 59/116/209 60/117/210 69/110/211 68/109/212
f 60/117/213 54/111/214 62/103/215 69/110/216
f 70/118/217 71/119/218 78/120/219 77/121/220
f 71/119/221 72/122/222 79/123/223 78/120/224
f 72/122/225 73/124/226 80/125/227 79/123/228
f 73/124/229 74/126/230 81/127/231 80/125/232
f 74/126/233 75/128/234 82/129/235 81/127/236
f 75/128/237 76/130/238 83/131/239 82/129/240
f 76/130/241 70/132/242 77/133/243 83/131/244
s 7
f 71/134/245 70/135/246 84/136/247
f 72/137/248 71/134/245 84/136/247
f 73/138/249 72/137/248 84/136/247
f 74/139/250 73/138/249 84/136/247
f 75/140/251 74/139/250 84/136/247
f 76/141/252 75/140/251 84/136/247
f 70/135/246 76/141/252 84/136/247
s 8
f 85/142/253 86/143/254 87/144/255
f 86/143/254 88/145/256 87/144/255
f 88/145/256 89/146/257 87/144/255
f 89/146/257 90/147/258 87/144/255
f 90/147/258 91/148/259 87/144/255
f 91/148/259 92/149/260 87/144/255
f 92/149/260 85/142/253 87/144/255
s off
f 77/150/261 78/151/262 86/143/263 85/142/264
f 78/151/265 79/152/266 88/145/267 86/143/268
f 79/152/269 80/153/270 89/146/271 88/145/272
f 80/153/273 81/154/274 90/147/275 89/146/276
f 81/154/277 82/155/278 91/148/279 90/147/280
f 82/155/281 83/156/282 92/149/283 91/148/284
f 83/156/285 77/150/286 85/142/287 92/149/288
