# This file uses centimeters as units for non-parametric coordinates.

mtllib switch_pin.mtl
g default
v 0.010005 0.000000 -0.003251
v 0.008512 0.000000 -0.006183
v 0.006185 0.000000 -0.008511
v 0.003253 0.000000 -0.010005
v 0.000000 0.000000 -0.010520
v -0.003251 0.000000 -0.010005
v -0.006183 0.000000 -0.008511
v -0.008510 0.000000 -0.006183
v -0.010003 0.000000 -0.003251
v -0.010519 0.000000 0.000000
v -0.010003 0.000000 0.003251
v -0.008510 0.000000 0.006183
v -0.006183 0.000000 0.008511
v -0.003251 0.000000 0.010005
v 0.000000 0.000000 0.010520
v 0.003253 0.000000 0.010005
v 0.006185 0.000000 0.008511
v 0.008512 0.000000 0.006183
v 0.010005 0.000000 0.003251
v 0.010520 0.000000 0.000000
v 0.010005 0.071854 -0.003251
v 0.008512 0.071854 -0.006183
v 0.006185 0.071854 -0.008511
v 0.003253 0.071854 -0.010005
v 0.000000 0.071854 -0.010520
v -0.003251 0.071854 -0.010005
v -0.006183 0.071854 -0.008511
v -0.008510 0.071854 -0.006183
v -0.010003 0.071854 -0.003251
v -0.010519 0.071854 0.000000
v -0.010003 0.071854 0.003251
v -0.008510 0.071854 0.006183
v -0.006183 0.071854 0.008511
v -0.003251 0.071854 0.010005
v 0.000000 0.071854 0.010520
v 0.003253 0.071854 0.010005
v 0.006185 0.071854 0.008511
v 0.008512 0.071854 0.006183
v 0.010005 0.071854 0.003251
v 0.010520 0.071854 0.000000
v 0.000000 0.000000 0.000000
v 0.017164 0.123793 -0.005577
v 0.014601 0.123793 -0.010607
v 0.010608 0.123793 -0.014600
v 0.005578 0.123793 -0.017164
v 0.000000 0.123793 -0.018047
v -0.005576 0.123793 -0.017163
v -0.010607 0.123793 -0.014600
v -0.014601 0.123793 -0.010607
v -0.017161 0.123793 -0.005577
v -0.018045 0.123793 0.000000
v -0.017161 0.123793 0.005577
v -0.014601 0.123793 0.010607
v -0.010607 0.123793 0.014600
v -0.005576 0.123793 0.017164
v 0.000000 0.123793 0.018046
v 0.005578 0.123793 0.017163
v 0.010608 0.123793 0.014600
v 0.014601 0.123793 0.010607
v 0.017164 0.123793 0.005577
v 0.018048 0.123793 0.000000
v 0.014416 0.133731 -0.004684
v 0.012264 0.133731 -0.008909
v 0.008912 0.133731 -0.012263
v 0.004686 0.133731 -0.014416
v 0.000000 0.133731 -0.015158
v -0.004683 0.133731 -0.014416
v -0.008907 0.133731 -0.012262
v -0.012264 0.133731 -0.008909
v -0.014414 0.133731 -0.004684
v -0.015154 0.133731 0.000000
v -0.014414 0.133731 0.004684
v -0.012264 0.133731 0.008909
v -0.008907 0.133731 0.012263
v -0.004683 0.133731 0.014416
v 0.000000 0.133731 0.015158
v 0.004686 0.133731 0.014416
v 0.008912 0.133731 0.012263
v 0.012264 0.133731 0.008909
v 0.014416 0.133731 0.004684
v 0.015160 0.133731 0.000000
v 0.008871 0.139141 -0.002882
v 0.007547 0.139141 -0.005481
v 0.005484 0.139141 -0.007545
v 0.002883 0.139141 -0.008870
v 0.000002 0.139141 -0.009326
v -0.002880 0.139141 -0.008869
v -0.005480 0.139141 -0.007545
v -0.007544 0.139141 -0.005481
v -0.008867 0.139141 -0.002882
v -0.009323 0.139141 0.000000
v -0.008867 0.139141 0.002882
v -0.007544 0.139141 0.005481
v -0.005480 0.139141 0.007545
v -0.002880 0.139141 0.008870
v 0.000002 0.139141 0.009326
v 0.002883 0.139141 0.008869
v 0.005484 0.139141 0.007545
v 0.007547 0.139141 0.005481
v 0.008871 0.139141 0.002882
v 0.009328 0.139141 0.000000
v 0.003671 0.142952 -0.001192
v 0.003123 0.142952 -0.002267
v 0.000002 0.142952 0.000000
v 0.002270 0.142952 -0.003121
v 0.001194 0.142952 -0.003669
v 0.000002 0.142952 -0.003858
v -0.001190 0.142952 -0.003669
v -0.002265 0.142952 -0.003121
v -0.003119 0.142952 -0.002267
v -0.003666 0.142952 -0.001192
v -0.003855 0.142952 0.000000
v -0.003666 0.142952 0.001192
v -0.003119 0.142952 0.002267
v -0.002265 0.142952 0.003121
v -0.001190 0.142952 0.003669
v 0.000002 0.142952 0.003858
v 0.001194 0.142952 0.003669
v 0.002270 0.142952 0.003121
v 0.003123 0.142952 0.002267
v 0.003671 0.142952 0.001192
v 0.003860 0.142952 0.000000
vt 0.648603 0.107966
vt 0.626409 0.064408
vt 0.591842 0.029841
vt 0.548284 0.007647
vt 0.500000 -0.000000
vt 0.451716 0.007647
vt 0.408159 0.029841
vt 0.373591 0.064409
vt 0.351397 0.107966
vt 0.343750 0.156250
vt 0.351397 0.204534
vt 0.373591 0.248091
vt 0.408159 0.282659
vt 0.451716 0.304853
vt 0.500000 0.312500
vt 0.548284 0.304853
vt 0.591841 0.282659
vt 0.626409 0.248091
vt 0.648603 0.204534
vt 0.656250 0.156250
vt 0.375000 0.312500
vt 0.387500 0.312500
vt 0.400000 0.312500
vt 0.412500 0.312500
vt 0.425000 0.312500
vt 0.437500 0.312500
vt 0.450000 0.312500
vt 0.462500 0.312500
vt 0.475000 0.312500
vt 0.487500 0.312500
vt 0.500000 0.312500
vt 0.512500 0.312500
vt 0.525000 0.312500
vt 0.537500 0.312500
vt 0.550000 0.312500
vt 0.562500 0.312500
vt 0.575000 0.312500
vt 0.587500 0.312500
vt 0.600000 0.312500
vt 0.612500 0.312500
vt 0.625000 0.312500
vt 0.375000 0.688440
vt 0.387500 0.688440
vt 0.400000 0.688440
vt 0.412500 0.688440
vt 0.425000 0.688440
vt 0.437500 0.688440
vt 0.450000 0.688440
vt 0.462500 0.688440
vt 0.475000 0.688440
vt 0.487500 0.688440
vt 0.500000 0.688440
vt 0.512500 0.688440
vt 0.525000 0.688440
vt 0.537500 0.688440
vt 0.550000 0.688440
vt 0.562500 0.688440
vt 0.575000 0.688440
vt 0.587500 0.688440
vt 0.600000 0.688440
vt 0.612500 0.688440
vt 0.625000 0.688440
vt 0.648603 0.795466
vt 0.626409 0.751908
vt 0.591842 0.717341
vt 0.548284 0.695147
vt 0.500000 0.687500
vt 0.451716 0.695147
vt 0.408159 0.717341
vt 0.373591 0.751909
vt 0.351397 0.795466
vt 0.343750 0.843750
vt 0.351397 0.892034
vt 0.373591 0.935591
vt 0.408159 0.970159
vt 0.451716 0.992353
vt 0.500000 1.000000
vt 0.548284 0.992353
vt 0.591841 0.970159
vt 0.626409 0.935591
vt 0.648603 0.892034
vt 0.656250 0.843750
vt 0.500000 0.150000
vt 0.500000 0.837500
vt 0.648603 0.892034
vt 0.626409 0.935591
vt 0.591841 0.970159
vt 0.548284 0.992353
vt 0.500000 1.000000
vt 0.451716 0.992353
vt 0.408159 0.970159
vt 0.373591 0.935591
vt 0.351397 0.892034
vt 0.343750 0.843750
vt 0.351397 0.795466
vt 0.373591 0.751909
vt 0.408159 0.717341
vt 0.451716 0.695147
vt 0.500000 0.687500
vt 0.548284 0.695147
vt 0.591842 0.717341
vt 0.626409 0.751908
vt 0.648603 0.795466
vt 0.656250 0.843750
vt 0.648603 0.892034
vt 0.626409 0.935591
vt 0.591841 0.970159
vt 0.548284 0.992353
vt 0.500000 1.000000
vt 0.451716 0.992353
vt 0.408159 0.970159
vt 0.373591 0.935591
vt 0.351397 0.892034
vt 0.343750 0.843750
vt 0.351397 0.795466
vt 0.373591 0.751909
vt 0.408159 0.717341
vt 0.451716 0.695147
vt 0.500000 0.687500
vt 0.548284 0.695147
vt 0.591842 0.717341
vt 0.626409 0.751908
vt 0.648603 0.795466
vt 0.656250 0.843750
vt 0.648603 0.892034
vt 0.626409 0.935591
vt 0.591841 0.970159
vt 0.548284 0.992353
vt 0.500000 1.000000
vt 0.451716 0.992353
vt 0.408159 0.970159
vt 0.373591 0.935591
vt 0.351397 0.892034
vt 0.343750 0.843750
vt 0.351397 0.795466
vt 0.373591 0.751909
vt 0.408159 0.717341
vt 0.451716 0.695147
vt 0.500000 0.687500
vt 0.548284 0.695147
vt 0.591842 0.717341
vt 0.626409 0.751908
vt 0.648603 0.795466
vt 0.656250 0.843750
vt 0.648603 0.892034
vt 0.626409 0.935591
vt 0.591841 0.970159
vt 0.548284 0.992353
vt 0.500000 1.000000
vt 0.451716 0.992353
vt 0.408159 0.970159
vt 0.373591 0.935591
vt 0.351397 0.892034
vt 0.343750 0.843750
vt 0.351397 0.795466
vt 0.373591 0.751909
vt 0.408159 0.717341
vt 0.451716 0.695147
vt 0.500000 0.687500
vt 0.548284 0.695147
vt 0.591842 0.717341
vt 0.626409 0.751908
vt 0.648603 0.795466
vt 0.656250 0.843750
vn 0.951138 0.000000 -0.308767
vn 0.809094 0.000000 -0.587679
vn 0.806974 -0.072104 -0.586169
vn 0.948632 -0.072106 -0.308056
vn 0.587774 0.000000 -0.809025
vn 0.586261 -0.072102 -0.806907
vn 0.308975 0.000000 -0.951070
vn 0.308181 -0.072106 -0.948591
vn 0.000000 0.000000 -1.000000
vn -0.000006 -0.072101 -0.997397
vn -0.309018 0.000000 -0.951056
vn -0.308228 -0.072105 -0.948576
vn -0.587809 0.000000 -0.809000
vn -0.586254 -0.072109 -0.806911
vn -0.809094 0.000000 -0.587679
vn -0.806984 -0.072112 -0.586154
vn -0.951084 0.000000 -0.308932
vn -0.948615 -0.072100 -0.308109
vn -1.000000 0.000000 0.000000
vn -0.997397 -0.072106 -0.000000
vn -0.951085 0.000000 0.308930
vn -0.948616 -0.072100 0.308107
vn -0.809094 0.000000 0.587679
vn -0.806986 -0.072112 0.586151
vn -0.587809 0.000000 0.809000
vn -0.586258 -0.072111 0.806909
vn -0.309018 0.000000 0.951056
vn -0.308217 -0.072106 0.948579
vn 0.000000 0.000000 1.000000
vn 0.000004 -0.072100 0.997397
vn 0.308975 0.000000 0.951070
vn 0.308180 -0.072105 0.948592
vn 0.587774 0.000000 0.809025
vn 0.586258 -0.072101 0.806910
vn 0.809094 0.000000 0.587679
vn 0.806973 -0.072103 0.586171
vn 0.951139 0.000000 0.308764
vn 0.948633 -0.072106 0.308053
vn 1.000000 0.000000 0.000000
vn 0.997396 -0.072113 -0.000000
vn 0.000000 -1.000000 0.000000
vn 0.000000 -1.000000 0.000000
vn 0.000000 -1.000000 0.000000
vn 0.000000 -1.000000 0.000000
vn 0.000000 -1.000000 0.000000
vn 0.000000 -1.000000 0.000000
vn 0.000000 -1.000000 0.000000
vn 0.000000 -1.000000 0.000000
vn 0.000000 -1.000000 0.000000
vn 0.000000 -1.000000 0.000000
vn 0.000000 -1.000000 0.000000
vn 0.000000 -1.000000 0.000000
vn 0.000000 -1.000000 0.000000
vn 0.000000 -1.000000 0.000000
vn 0.000000 -1.000000 0.000000
vn 0.000000 -1.000000 0.000000
vn 0.000000 -1.000000 0.000000
vn 0.000000 -1.000000 0.000000
vn 0.000000 -1.000000 0.000000
vn 0.000000 -1.000000 0.000000
vn 0.000000 -1.000000 0.000000
vn 0.000000 1.000000 0.000000
vn 0.000000 1.000000 0.000006
vn 0.000000 1.000000 0.000001
vn 0.000000 1.000000 0.000006
vn 0.000000 1.000000 0.000000
vn 0.000000 1.000000 0.000000
vn 0.000000 1.000000 -0.000003
vn 0.000000 1.000000 0.000003
vn 0.000000 1.000000 0.000000
vn 0.000000 1.000000 -0.000006
vn 0.000000 1.000000 0.000000
vn 0.000000 1.000000 0.000000
vn 0.000000 1.000000 -0.000006
vn 0.000000 1.000000 -0.000006
vn 0.000000 1.000000 0.000000
vn 0.000000 1.000000 0.000000
vn 0.000000 1.000000 0.000003
vn 0.000000 1.000000 0.000003
vn 0.000000 1.000000 0.000006
vn 0.000000 1.000000 0.000006
vn 0.000000 1.000000 0.000000
vn 0.807280 -0.066411 -0.586421
vn 0.948968 -0.066411 -0.308299
vn 0.586514 -0.066415 -0.807212
vn 0.308306 -0.066409 -0.948967
vn -0.000016 -0.066410 -0.997792
vn -0.308369 -0.066408 -0.948946
vn -0.586461 -0.066393 -0.807251
vn -0.807290 -0.066407 -0.586407
vn -0.949004 -0.066398 -0.308191
vn -0.997794 -0.066392 0.000000
vn -0.949005 -0.066398 0.308189
vn -0.807295 -0.066407 0.586400
vn -0.586469 -0.066396 0.807246
vn -0.308345 -0.066410 0.948954
vn 0.000008 -0.066408 0.997793
vn 0.308304 -0.066405 0.948968
vn 0.586506 -0.066412 0.807217
vn 0.807277 -0.066411 0.586425
vn 0.948969 -0.066411 0.308298
vn 0.997791 -0.066429 0.000000
vn 0.776944 0.279065 -0.564342
vn 0.913245 0.279068 -0.296823
vn 0.564509 0.279052 -0.776827
vn 0.296703 0.279084 -0.913279
vn -0.000030 0.279115 -0.960258
vn -0.296819 0.279140 -0.913225
vn -0.564354 0.279157 -0.776902
vn -0.776870 0.279152 -0.564400
vn -0.913339 0.279135 -0.296473
vn -0.960234 0.279195 -0.000000
vn -0.913339 0.279134 0.296471
vn -0.776879 0.279150 0.564388
vn -0.564367 0.279155 0.776893
vn -0.296780 0.279137 0.913238
vn 0.000013 0.279115 0.960258
vn 0.296704 0.279091 0.913277
vn 0.564497 0.279061 0.776832
vn 0.776936 0.279070 0.564349
vn 0.913245 0.279069 0.296823
vn 0.960272 0.279067 -0.000000
vn 0.610019 0.728913 -0.310744
vn 0.610019 0.728913 -0.310744
vn 0.610019 0.728913 -0.310744
vn 0.610019 0.728913 -0.310744
vn 0.484174 0.728947 -0.483955
vn 0.484174 0.728947 -0.483955
vn 0.484173 0.728947 -0.483955
vn 0.484174 0.728947 -0.483955
vn 0.310767 0.728967 -0.609944
vn 0.310767 0.728967 -0.609944
vn 0.310767 0.728966 -0.609944
vn 0.310767 0.728966 -0.609944
vn 0.107031 0.728944 -0.676155
vn 0.107031 0.728944 -0.676155
vn 0.107031 0.728944 -0.676155
vn 0.107031 0.728944 -0.676155
vn -0.107106 0.728963 -0.676122
vn -0.107106 0.728963 -0.676122
vn -0.107106 0.728963 -0.676122
vn -0.107106 0.728963 -0.676122
vn -0.310890 0.728944 -0.609908
vn -0.310890 0.728944 -0.609908
vn -0.310890 0.728944 -0.609908
vn -0.310890 0.728944 -0.609908
vn -0.483871 0.728952 -0.484249
vn -0.483871 0.728952 -0.484249
vn -0.483871 0.728952 -0.484249
vn -0.483871 0.728952 -0.484249
vn -0.610056 0.729000 -0.310470
vn -0.610056 0.729000 -0.310470
vn -0.610056 0.729000 -0.310470
vn -0.610056 0.729000 -0.310470
vn -0.676165 0.728957 -0.106879
vn -0.676165 0.728957 -0.106879
vn -0.676165 0.728957 -0.106879
vn -0.676165 0.728957 -0.106879
vn -0.676165 0.728957 0.106876
vn -0.676165 0.728957 0.106876
vn -0.676165 0.728957 0.106876
vn -0.676165 0.728957 0.106876
vn -0.610052 0.729001 0.310475
vn -0.610052 0.729001 0.310475
vn -0.610052 0.729001 0.310475
vn -0.610052 0.729001 0.310475
vn -0.483893 0.728957 0.484220
vn -0.483893 0.728957 0.484220
vn -0.483893 0.728957 0.484220
vn -0.483893 0.728957 0.484220
vn -0.310873 0.728952 0.609907
vn -0.310873 0.728952 0.609907
vn -0.310873 0.728952 0.609907
vn -0.310873 0.728952 0.609907
vn -0.107054 0.728967 0.676126
vn -0.107054 0.728967 0.676126
vn -0.107054 0.728967 0.676126
vn -0.107054 0.728967 0.676126
vn 0.107057 0.728943 0.676152
vn 0.107057 0.728943 0.676152
vn 0.107057 0.728942 0.676152
vn 0.107057 0.728942 0.676152
vn 0.310755 0.728965 0.609952
vn 0.310755 0.728965 0.609952
vn 0.310755 0.728965 0.609952
vn 0.310755 0.728965 0.609952
vn 0.484165 0.728945 0.483965
vn 0.484166 0.728945 0.483965
vn 0.484165 0.728945 0.483965
vn 0.484166 0.728945 0.483965
vn 0.610015 0.728913 0.310754
vn 0.610015 0.728913 0.310754
vn 0.610015 0.728913 0.310754
vn 0.610015 0.728913 0.310754
vn 0.676114 0.728943 0.107295
vn 0.676114 0.728943 0.107295
vn 0.676114 0.728943 0.107295
vn 0.676114 0.728943 0.107295
vn 0.676114 0.728943 -0.107298
vn 0.676114 0.728943 -0.107298
vn 0.676114 0.728943 -0.107298
vn 0.676114 0.728943 -0.107298
vn 0.543929 0.820303 -0.176762
vn 0.462721 0.820321 -0.336100
vn 0.462731 0.820321 -0.336086
vn 0.543929 0.820303 -0.176762
vn 0.336153 0.820335 -0.462656
vn 0.336165 0.820335 -0.462648
vn 0.176705 0.820343 -0.543887
vn 0.176715 0.820343 -0.543884
vn -0.000020 0.820348 -0.571864
vn -0.000012 0.820348 -0.571864
vn -0.176721 0.820354 -0.543864
vn -0.176720 0.820354 -0.543865
vn -0.336109 0.820364 -0.462639
vn -0.336097 0.820364 -0.462647
vn -0.462634 0.820392 -0.336046
vn -0.462634 0.820392 -0.336047
vn -0.543917 0.820365 -0.176508
vn -0.543927 0.820365 -0.176477
vn -0.571883 0.820335 0.000000
vn -0.571883 0.820335 -0.000000
vn -0.543915 0.820366 0.176509
vn -0.543926 0.820366 0.176477
vn -0.462640 0.820391 0.336039
vn -0.462642 0.820391 0.336037
vn -0.336114 0.820368 0.462627
vn -0.336105 0.820368 0.462634
vn -0.176691 0.820357 0.543871
vn -0.176685 0.820357 0.543872
vn 0.000006 0.820345 0.571869
vn 0.000019 0.820345 0.571869
vn 0.176709 0.820334 0.543899
vn 0.176717 0.820334 0.543896
vn 0.336149 0.820329 0.462670
vn 0.336159 0.820329 0.462663
vn 0.462717 0.820319 0.336110
vn 0.462726 0.820319 0.336098
vn 0.543928 0.820303 0.176762
vn 0.543928 0.820303 0.176763
vn 0.571903 0.820321 0.000000
vn 0.571903 0.820321 -0.000000
s 1
g switch_pin
usemtl initialShadingGroup
f 1/21/1 2/22/2 22/43/3 21/42/4
f 2/22/2 3/23/5 23/44/6 22/43/3
f 3/23/5 4/24/7 24/45/8 23/44/6
f 4/24/7 5/25/9 25/46/10 24/45/8
f 5/25/9 6/26/11 26/47/12 25/46/10
f 6/26/11 7/27/13 27/48/14 26/47/12
f 7/27/13 8/28/15 28/49/16 27/48/14
f 8/28/15 9/29/17 29/50/18 28/49/16
f 9/29/17 10/30/19 30/51/20 29/50/18
f 10/30/19 11/31/21 31/52/22 30/51/20
f 11/31/21 12/32/23 32/53/24 31/52/22
f 12/32/23 13/33/25 33/54/26 32/53/24
f 13/33/25 14/34/27 34/55/28 33/54/26
f 14/34/27 15/35/29 35/56/30 34/55/28
f 15/35/29 16/36/31 36/57/32 35/56/30
f 16/36/31 17/37/33 37/58/34 36/57/32
f 17/37/33 18/38/35 38/59/36 37/58/34
f 18/38/35 19/39/37 39/60/38 38/59/36
f 19/39/37 20/40/39 40/61/40 39/60/38
f 20/40/39 1/41/1 21/62/4 40/61/40
s 2
f 2/2/41 1/1/42 41/83/43
f 3/3/44 2/2/41 41/83/43
f 4/4/45 3/3/44 41/83/43
f 5/5/46 4/4/45 41/83/43
f 6/6/47 5/5/46 41/83/43
f 7/7/48 6/6/47 41/83/43
f 8/8/49 7/7/48 41/83/43
f 9/9/50 8/8/49 41/83/43
f 10/10/51 9/9/50 41/83/43
f 11/11/52 10/10/51 41/83/43
f 12/12/53 11/11/52 41/83/43
f 13/13/54 12/12/53 41/83/43
f 14/14/55 13/13/54 41/83/43
f 15/15/56 14/14/55 41/83/43
f 16/16/57 15/15/56 41/83/43
f 17/17/58 16/16/57 41/83/43
f 18/18/59 17/17/58 41/83/43
f 19/19/60 18/18/59 41/83/43
f 20/20/61 19/19/60 41/83/43
f 1/1/42 20/20/61 41/83/43
s 3
f 102/145/62 103/146/63 104/84/64
f 103/146/63 105/147/65 104/84/64
f 105/147/65 106/148/66 104/84/64
f 106/148/66 107/149/67 104/84/64
f 107/149/67 108/150/68 104/84/64
f 108/150/68 109/151/69 104/84/64
f 109/151/69 110/152/70 104/84/64
f 110/152/70 111/153/71 104/84/64
f 111/153/71 112/154/72 104/84/64
f 112/154/72 113/155/73 104/84/64
f 113/155/73 114/156/74 104/84/64
f 114/156/74 115/157/75 104/84/64
f 115/157/75 116/158/76 104/84/64
f 116/158/76 117/159/77 104/84/64
f 117/159/77 118/160/78 104/84/64
f 118/160/78 119/161/79 104/84/64
f 119/161/79 120/162/80 104/84/64
f 120/162/80 121/163/81 104/84/64
f 121/163/81 122/164/82 104/84/64
f 122/164/82 102/145/62 104/84/64
s 1
f 21/81/4 22/80/3 43/86/83 42/85/84
f 22/80/3 23/79/6 44/87/85 43/86/83
f 23/79/6 24/78/8 45/88/86 44/87/85
f 24/78/8 25/77/10 46/89/87 45/88/86
f 25/77/10 26/76/12 47/90/88 46/89/87
f 26/76/12 27/75/14 48/91/89 47/90/88
f 27/75/14 28/74/16 49/92/90 48/91/89
f 28/74/16 29/73/18 50/93/91 49/92/90
f 29/73/18 30/72/20 51/94/92 50/93/91
f 30/72/20 31/71/22 52/95/93 51/94/92
f 31/71/22 32/70/24 53/96/94 52/95/93
f 32/70/24 33/69/26 54/97/95 53/96/94
f 33/69/26 34/68/28 55/98/96 54/97/95
f 34/68/28 35/67/30 56/99/97 55/98/96
f 35/67/30 36/66/32 57/100/98 56/99/97
f 36/66/32 37/65/34 58/101/99 57/100/98
f 37/65/34 38/64/36 59/102/100 58/101/99
f 38/64/36 39/63/38 60/103/101 59/102/100
f 39/63/38 40/82/40 61/104/102 60/103/101
f 40/82/40 21/81/4 42/85/84 61/104/102
f 42/85/84 43/86/83 63/106/103 62/105/104
f 43/86/83 44/87/85 64/107/105 63/106/103
f 44/87/85 45/88/86 65/108/106 64/107/105
f 45/88/86 46/89/87 66/109/107 65/108/106
f 46/89/87 47/90/88 67/110/108 66/109/107
f 47/90/88 48/91/89 68/111/109 67/110/108
f 48/91/89 49/92/90 69/112/110 68/111/109
f 49/92/90 50/93/91 70/113/111 69/112/110
f 50/93/91 51/94/92 71/114/112 70/113/111
f 51/94/92 52/95/93 72/115/113 71/114/112
f 52/95/93 53/96/94 73/116/114 72/115/113
f 53/96/94 54/97/95 74/117/115 73/116/114
f 54/97/95 55/98/96 75/118/116 74/117/115
f 55/98/96 56/99/97 76/119/117 75/118/116
f 56/99/97 57/100/98 77/120/118 76/119/117
f 57/100/98 58/101/99 78/121/119 77/120/118
f 58/101/99 59/102/100 79/122/120 78/121/119
f 59/102/100 60/103/101 80/123/121 79/122/120
f 60/103/101 61/104/102 81/124/122 80/123/121
f 61/104/102 42/85/84 62/105/104 81/124/122
s off
f 62/105/123 63/106/124 83/126/125 82/125/126
f 63/106/127 64/107/128 84/127/129 83/126/130
f 64/107/131 65/108/132 85/128/133 84/127/134
f 65/108/135 66/109/136 86/129/137 85/128/138
f 66/109/139 67/110/140 87/130/141 86/129/142
f 67/110/143 68/111/144 88/131/145 87/130/146
f 68/111/147 69/112/148 89/132/149 88/131/150
f 69/112/151 70/113/152 90/133/153 89/132/154
f 70/113/155 71/114/156 91/134/157 90/133/158
f 71/114/159 72/115/160 92/135/161 91/134/162
f 72/115/163 73/116/164 93/136/165 92/135/166
f 73/116/167 74/117/168 94/137/169 93/136/170
f 74/117/171 75/118/172 95/138/173 94/137/174
f 75/118/175 76/119/176 96/139/177 95/138/178
f 76/119/179 77/120/180 97/140/181 96/139/182
f 77/120/183 78/121/184 98/141/185 97/140/186
f 78/121/187 79/122/188 99/142/189 98/141/190
f 79/122/191 80/123/192 100/143/193 99/142/194
f 80/123/195 81/124/196 101/144/197 100/143/198
f 81/124/199 62/105/200 82/125/201 101/144/202
s 4
f 82/125/203 83/126/204 103/146/205 102/145/206
f 83/126/204 84/127/207 105/147/208 103/146/205
f 84/127/207 85/128/209 106/148/210 105/147/208
f 85/128/209 86/129/211 107/149/212 106/148/210
f 86/129/211 87/130/213 108/150/214 107/149/212
f 87/130/213 88/131/215 109/151/216 108/150/214
f 88/131/215 89/132/217 110/152/218 109/151/216
f 89/132/217 90/133/219 111/153/220 110/152/218
f 90/133/219 91/134/221 112/154/222 111/153/220
f 91/134/221 92/135/223 113/155/224 112/154/222
f 92/135/223 93/136/225 114/156/226 113/155/224
f 93/136/225 94/137/227 115/157/228 114/156/226
f 94/137/227 95/138/229 116/158/230 115/157/228
f 95/138/229 96/139/231 117/159/232 116/158/230
f 96/139/231 97/140/233 118/160/234 117/159/232
f 97/140/233 98/141/235 119/161/236 118/160/234
f 98/141/235 99/142/237 120/162/238 119/161/236
f 99/142/237 100/143/239 121/163/240 120/162/238
f 100/143/239 101/144/241 122/164/242 121/163/240
f 101/144/241 82/125/203 102/145/206 122/164/242
