# This file uses centimeters as units for non-parametric coordinates.

v 42.102005 26.456078 14.323967
v 42.102001 28.590836 13.259098
v 45.107937 0.000000 22.983171
v 39.821716 28.699356 0.000004
v -42.102001 28.590836 13.259098
v -42.102005 26.456078 14.323967
v -45.107937 0.000000 22.983171
v -39.841263 28.699356 0.000000
vt 0.034535 0.457577
vt 0.034684 0.483188
vt 0.004151 0.782218
vt 0.058188 0.315089
vt 0.954214 0.457739
vt 0.954048 0.483404
vt 0.984441 0.783081
vt 0.930819 0.314937
vn -0.000000 0.299669 0.954043
vn -0.000000 0.980687 0.195584
vn -0.000000 0.980721 0.195411
vn -0.000000 0.299669 0.954043
vn -0.000000 0.284306 0.958734
vn -0.000000 0.284306 0.958734
vn -0.000000 0.299669 0.954043
vn -0.000000 0.299669 0.954043
vn -0.000000 0.980687 0.195584
vn -0.000000 0.999967 0.008184
vn -0.000000 0.999967 0.008184
vn -0.000000 0.980721 0.195411
f 1/2/1 2/1/2 5/5/3 6/6/4
f 7/7/5 3/3/6 1/2/7 6/6/8
f 2/1/9 4/4/10 8/8/11 5/5/12
