# This file uses centimeters as units for non-parametric coordinates.

v 1.869269 28.590836 13.259097
v 1.869269 26.456078 14.323967
v 42.102009 26.456078 14.323967
v 42.102005 28.590836 13.259097
v 1.869269 0.000000 22.983171
v 45.107941 0.000000 22.983171
v 39.821720 28.699356 0.000004
v 1.678229 28.699356 0.000004
v -42.101997 28.590836 13.259097
v -42.102001 26.456078 14.323967
v -4.775671 26.456078 14.323967
v -4.775671 28.590836 13.259097
v -45.107933 0.000000 22.983171
v -4.775671 0.000000 22.983171
v -4.322341 28.699356 0.000004
v -39.841259 28.699356 0.000002
vt 0.034535 0.457577
vt 0.466449 0.455068
vt 0.466598 0.480679
vt 0.034684 0.483188
vt 0.468334 0.779521
vt 0.004151 0.782218
vt 0.058188 0.315089
vt 0.467673 0.312710
vt 0.552663 0.455133
vt 0.954214 0.457739
vt 0.954048 0.483404
vt 0.552496 0.480797
vt 0.984441 0.783081
vt 0.550553 0.780265
vt 0.548712 0.312457
vt 0.930819 0.314937
vn -0.000000 0.980687 0.195584
vn -0.000000 0.987087 0.160185
vn -0.000000 0.299669 0.954043
vn -0.000000 0.299669 0.954043
vn -0.000000 0.299669 0.954043
vn -0.000000 0.299669 0.954043
vn -0.000000 0.284306 0.958734
vn -0.000000 0.284306 0.958734
vn -0.000000 0.980687 0.195584
vn -0.000000 0.999967 0.008184
vn -0.000000 0.999967 0.008184
vn -0.000000 0.987087 0.160185
vn -0.000000 0.987359 0.158499
vn -0.000000 0.980721 0.195411
vn -0.000000 0.299669 0.954043
vn -0.000000 0.299669 0.954043
vn -0.000000 0.299669 0.954043
vn -0.000000 0.299669 0.954043
vn -0.000000 0.284306 0.958734
vn -0.000000 0.284306 0.958734
vn -0.000000 0.987359 0.158499
vn -0.000000 0.999967 0.008184
vn -0.000000 0.999967 0.008184
vn -0.000000 0.980721 0.195411
f 4/1/1 1/2/2 2/3/3 3/4/4
f 3/4/5 2/3/6 5/5/7 6/6/8
f 4/1/9 7/7/10 8/8/11 1/2/12
f 12/9/13 9/10/14 10/11/15 11/12/16
f 11/12/17 10/11/18 13/13/19 14/14/20
f 12/9/21 15/15/22 16/16/23 9/10/24
