# This file uses centimeters as units for non-parametric coordinates.

v -1.970057 55.259941 -11.236594
v -1.970057 57.394699 -10.171724
v -45.208721 57.394699 -10.171724
v -45.208725 55.259941 -11.236594
v -1.970057 79.850777 -3.512520
v -45.208725 79.850777 -3.512520
v -40.824764 55.151421 -24.495689
v -1.779017 55.151421 -24.495689
v 45.007149 55.259941 -11.236594
v 45.007145 57.394699 -10.171724
v 4.674883 57.394699 -10.171724
v 4.674883 55.259941 -11.236594
v 45.007149 79.850777 -3.512520
v 4.674883 79.850777 -3.512520
v 4.221553 55.151421 -24.495689
v 40.642735 55.151421 -24.495689
vt 0.037109 0.431641
vt 0.517578 0.431641
vt 0.517578 0.455078
vt 0.037109 0.455078
vt 0.517578 0.716797
vt 0.037109 0.716797
vt 0.083984 0.283203
vt 0.517578 0.283203
vt 0.587891 0.431641
vt 1.037109 0.431641
vt 1.037109 0.455078
vt 0.587891 0.455078
vt 1.037109 0.716797
vt 0.587891 0.716797
vt 0.583984 0.283203
vt 0.986328 0.283203
vn 0.000000 -0.980687 0.195584
vn 0.000000 -0.987087 0.160185
vn 0.000000 -0.299669 0.954043
vn 0.000000 -0.299669 0.954043
vn 0.000000 -0.284306 0.958734
vn 0.000000 -0.284306 0.958734
vn 0.000000 -0.999967 0.008184
vn 0.000000 -0.999967 0.008184
vn 0.000000 -0.987359 0.158499
vn 0.000000 -0.980721 0.195411
vn 0.000000 -0.299669 0.954043
vn 0.000000 -0.299669 0.954043
vn 0.000000 -0.284306 0.958734
vn 0.000000 -0.284306 0.958734
vn 0.000000 -0.999967 0.008184
vn 0.000000 -0.999967 0.008184
f 4/1/1 1/2/2 2/3/3 3/4/4
f 3/4/4 2/3/3 5/5/5 6/6/6
f 4/1/1 7/7/7 8/8/8 1/2/2
f 12/9/9 9/10/10 10/11/11 11/12/12
f 11/12/12 10/11/11 13/13/13 14/14/14
f 12/9/9 15/15/15 16/16/16 9/10/10
