# This file uses centimeters as units for non-parametric coordinates.

v -51.861983 54.032139 -10.001406
v 51.861983 54.032139 -10.001406
v -51.861983 82.894222 -1.442543
v 51.861983 82.894222 -1.442543
v -42.811430 89.302318 -36.085663
v 42.811430 89.302318 -36.085663
v -42.811430 54.032139 -36.085663
v 42.811430 54.032139 -36.085663
v 0.682044 54.032139 -10.001406
v 0.682044 82.894222 -1.442543
v 0.563019 89.302318 -36.085663
v 0.563019 54.032139 -36.085663
v -45.208725 54.032139 -10.001406
v -45.208725 82.894222 -1.442543
v -37.319243 89.302318 -36.085663
v -37.319243 54.032139 -36.085663
v -1.970057 54.032139 -10.001406
v -1.970057 82.894222 -1.442543
v -1.626257 89.302318 -36.085663
v -1.626257 54.032139 -36.085663
v 4.674883 54.032139 -10.001406
v 4.674883 82.894222 -1.442543
v 3.859059 89.302311 -36.085663
v 3.859059 54.032139 -36.085663
v 45.007149 54.032139 -10.001406
v 45.007149 82.894222 -1.442543
v 37.152845 89.302318 -36.085663
v 37.152845 54.032139 -36.085663
v 45.007146 57.076481 -9.098625
v 4.674883 57.076481 -9.098625
v 0.682044 57.076481 -9.098625
v -1.970057 57.076481 -9.098625
v -45.208722 57.076481 -9.098625
v -51.861983 57.076481 -9.098625
v -42.811430 57.752403 -36.085663
v -37.319243 57.752399 -36.085663
v -1.626257 57.752399 -36.085663
v 0.563019 57.752403 -36.085663
v 3.859059 57.752399 -36.085663
v 37.152845 57.752403 -36.085663
v 42.811430 57.752403 -36.085663
v 51.861983 57.076481 -9.098625
v 45.007149 79.532558 -2.439422
v 4.674883 79.532558 -2.439422
v 0.682044 79.532558 -2.439422
v -1.970057 79.532558 -2.439422
v -45.208725 79.532558 -2.439422
v -51.861983 79.532558 -2.439422
v -42.811430 85.194286 -36.085663
v -37.319243 85.194286 -36.085663
v -1.626257 85.194286 -36.085663
v 0.563019 85.194286 -36.085663
v 3.859059 85.194278 -36.085663
v 37.152845 85.194286 -36.085663
v 42.811430 85.194286 -36.085663
v 51.861983 79.532558 -2.439422
v 4.221553 54.032139 -24.495686
v 0.615905 54.032139 -24.495686
v -1.779017 54.032139 -24.495686
v -40.824764 54.032139 -24.495686
v -46.832850 54.032139 -24.495686
v -46.832850 57.452072 -24.094553
v -46.832850 82.678623 -21.135681
v -46.832850 86.455021 -20.692739
v -40.824764 86.455021 -20.692743
v -1.779017 86.455021 -20.692743
v 0.615905 86.455021 -20.692743
v 4.221553 86.455021 -20.692743
v 40.642736 86.455021 -20.692743
v 46.832850 86.455021 -20.692743
v 46.832850 82.678623 -21.135685
v 46.832850 57.452072 -24.094557
v 46.832850 54.032139 -24.495689
v 40.642736 54.032139 -24.495689
v -45.208725 54.032139 -10.001406
v -1.970057 54.032139 -10.001406
v -1.970057 57.076481 -9.098625
v -45.208722 57.076481 -9.098625
v -1.970057 79.532558 -2.439423
v -45.208725 79.532558 -2.439423
v -40.824764 54.032139 -24.495689
v -1.779017 54.032139 -24.495689
v 4.674883 54.032139 -10.001405
v 45.007149 54.032139 -10.001405
v 45.007146 57.076481 -9.098625
v 4.674883 57.076481 -9.098625
v 45.007149 79.532558 -2.439423
v 4.674883 79.532558 -2.439423
v 4.221553 54.032139 -24.495689
v 40.642736 54.032139 -24.495689
v -45.208725 55.259945 -11.236594
v -1.970057 55.259945 -11.236594
v -1.970057 57.394703 -10.171724
v -45.208722 57.394703 -10.171724
v -1.970057 79.850780 -3.512520
v -45.208725 79.850780 -3.512520
v -40.824764 55.151424 -24.495689
v -1.779017 55.151424 -24.495689
v 4.674883 55.259945 -11.236594
v 45.007149 55.259945 -11.236594
v 45.007146 57.394703 -10.171724
v 4.674883 57.394703 -10.171724
v 45.007149 79.850780 -3.512520
v 4.674883 79.850780 -3.512520
v 4.221553 55.151424 -24.495689
v 40.642736 55.151424 -24.495689
vt 0.713555 0.789691
vt 0.713555 0.810433
vt 0.705759 0.789691
vt 0.705759 0.810433
vt 0.670678 0.789691
vt 0.670678 0.898959
vt 0.705759 0.810433
vt 0.705759 0.789691
vt 0.713555 0.789691
vt 0.713555 0.810433
vt 0.670678 0.789691
vt 0.670678 0.898959
vt 0.910118 0.428837
vt 0.998008 0.428837
vt 0.998008 0.457049
vt 0.907076 0.454772
vt 0.998008 0.665149
vt 0.884638 0.646072
vt 0.800204 0.428837
vt 0.793358 0.451923
vt 0.998008 0.696301
vt 0.881279 0.674709
vt 0.742859 0.622214
vt 0.735299 0.647707
vt 0.466455 0.518236
vt 0.554346 0.518236
vt 0.557387 0.544170
vt 0.466455 0.546448
vt 0.664260 0.518236
vt 0.671106 0.541322
vt 0.579825 0.735470
vt 0.466455 0.754547
vt 0.721604 0.711613
vt 0.583184 0.764108
vt 0.466455 0.785700
vt 0.729164 0.737105
vt 0.265226 0.541322
vt 0.315725 0.711613
vt 0.315725 0.711613
vt 0.265226 0.541322
vt 0.307587 0.714026
vt 0.257088 0.543735
vt 0.258380 0.518236
vt 0.249013 0.527547
vt 0.148466 0.518236
vt 0.148466 0.526724
vt 0.001992 0.911394
vt 0.052491 0.741103
vt 0.052491 0.741103
vt 0.001992 0.911394
vt 0.060628 0.743517
vt 0.010130 0.913807
vt 0.059337 0.718017
vt 0.068703 0.727328
vt 0.169251 0.718017
vt 0.169251 0.726505
vt 0.685319 0.789691
vt 0.678473 0.812777
vt 0.678473 0.812777
vt 0.685319 0.789691
vt 0.698962 0.812777
vt 0.692116 0.789691
vt 0.692116 0.789691
vt 0.698962 0.812777
vt 0.292404 0.758863
vt 0.342903 0.929154
vt 0.342903 0.929154
vt 0.292404 0.758863
vt 0.334765 0.931567
vt 0.284266 0.761276
vt 0.285558 0.735777
vt 0.276191 0.745087
vt 0.175644 0.735777
vt 0.175644 0.744264
vt 0.349100 0.983068
vt 0.399599 0.812777
vt 0.399599 0.812777
vt 0.349100 0.983068
vt 0.407737 0.815190
vt 0.357238 0.985481
vt 0.406445 0.789691
vt 0.415812 0.799002
vt 0.516359 0.789691
vt 0.516359 0.798179
vt 0.374245 0.489406
vt 0.374245 0.459733
vt 0.490974 0.442420
vt 0.490974 0.469545
vt 0.228265 0.514244
vt 0.228265 0.481385
vt 0.374245 0.266892
vt 0.490974 0.266138
vt 0.228265 0.267836
vt 0.374245 0.255064
vt 0.490974 0.255325
vt 0.228265 0.254737
vt 0.374245 0.237256
vt 0.490974 0.239046
vt 0.228265 0.235017
vt 0.374245 0.057377
vt 0.490974 0.074613
vt 0.228265 0.035822
vt 0.374245 0.026805
vt 0.490974 0.046666
vt 0.228265 0.001967
vt 0.497221 0.469545
vt 0.497221 0.442420
vt 0.585111 0.459733
vt 0.585111 0.489406
vt 0.497221 0.266137
vt 0.585111 0.266892
vt 0.695025 0.481385
vt 0.695025 0.514244
vt 0.497221 0.255325
vt 0.585111 0.255064
vt 0.497221 0.239046
vt 0.585111 0.237256
vt 0.695025 0.267835
vt 0.695025 0.254737
vt 0.585111 0.057377
vt 0.497221 0.074613
vt 0.695025 0.235017
vt 0.695025 0.267835
vt 0.585111 0.266892
vt 0.497221 0.046666
vt 0.585111 0.026805
vt 0.695025 0.035822
vt 0.695025 0.001967
vt 0.344271 0.518236
vt 0.344271 0.731785
vt 0.344271 0.731785
vt 0.344271 0.518236
vt 0.336133 0.731785
vt 0.336133 0.518236
vt 0.350406 0.732729
vt 0.460320 0.711077
vt 0.460320 0.711077
vt 0.350406 0.732729
vt 0.460320 0.518236
vt 0.460320 0.518236
vt 0.329998 0.518236
vt 0.329998 0.717431
vt 0.329998 0.717431
vt 0.329998 0.518236
vt 0.321860 0.717431
vt 0.321860 0.518236
vt 0.538149 0.967331
vt 0.648063 0.969570
vt 0.648063 0.969570
vt 0.538149 0.967331
vt 0.648063 0.789691
vt 0.648063 0.789691
vt 0.001992 0.514244
vt 0.001992 0.481385
vt 0.025078 0.481385
vt 0.025078 0.514244
vt 0.195369 0.481385
vt 0.195369 0.514244
vt 0.220861 0.481385
vt 0.220861 0.514244
vt 0.195369 0.267835
vt 0.220861 0.267835
vt 0.195369 0.254737
vt 0.220861 0.254737
vt 0.025078 0.267835
vt 0.025078 0.254737
vt 0.195369 0.235017
vt 0.220861 0.235017
vt 0.001992 0.267835
vt 0.001992 0.254737
vt 0.025078 0.235017
vt 0.195369 0.035822
vt 0.220861 0.035822
vt 0.001992 0.235017
vt 0.195369 0.001967
vt 0.220861 0.001967
vt 0.025078 0.035822
vt 0.025078 0.001967
vt 0.001992 0.035822
vt 0.001992 0.001967
vt 0.941113 0.424846
vt 0.941113 0.397721
vt 0.969325 0.397721
vt 0.969325 0.424846
vt 0.733013 0.424846
vt 0.733013 0.397721
vt 0.941113 0.221438
vt 0.969325 0.221438
vt 0.701861 0.424846
vt 0.701861 0.397721
vt 0.733013 0.221438
vt 0.941113 0.210626
vt 0.969325 0.210626
vt 0.701861 0.221438
vt 0.733013 0.210626
vt 0.941113 0.194347
vt 0.969325 0.194347
vt 0.701861 0.210626
vt 0.733013 0.194347
vt 0.941113 0.029914
vt 0.969325 0.029914
vt 0.701861 0.194347
vt 0.733013 0.029914
vt 0.941113 0.001967
vt 0.969325 0.001967
vt 0.701861 0.029914
vt 0.733013 0.001967
vt 0.701861 0.001967
vt 0.522557 0.982532
vt 0.522557 0.789691
vt 0.531045 0.789691
vt 0.531045 0.982532
vt 0.655086 0.969570
vt 0.655086 0.789691
vt 0.663574 0.789691
vt 0.663574 0.969570
vn 0.000000 -0.284307 0.958733
vn 0.000000 -0.284307 0.958733
vn 0.000000 -0.284306 0.958733
vn 0.000000 -0.284306 0.958733
vn 0.000000 0.983319 0.181889
vn 0.000000 0.983319 0.181889
vn 0.000000 0.983319 0.181889
vn 0.000000 0.983319 0.181889
vn 0.000000 0.000000 -1.000000
vn 0.000000 0.000000 -1.000000
vn 0.000000 0.000000 -1.000000
vn 0.000000 0.000000 -1.000000
vn 0.000000 -1.000000 0.000000
vn 0.000000 -1.000000 0.000000
vn 0.000000 -1.000000 0.000000
vn 0.000000 -1.000000 0.000000
vn 0.945817 0.041282 -0.322065
vn 0.946378 0.018121 -0.322552
vn 0.957354 0.016206 -0.288463
vn 0.957315 0.037347 -0.286624
vn -0.946378 0.018121 -0.322552
vn -0.945817 0.041282 -0.322065
vn -0.957315 0.037347 -0.286624
vn -0.957354 0.016206 -0.288463
vn 0.000000 -0.284306 0.958734
vn 0.000000 -0.284306 0.958733
vn 0.000000 -0.284306 0.958734
vn 0.000000 -0.284306 0.958734
vn 0.000001 0.983319 0.181889
vn 0.000000 0.983319 0.181889
vn -0.000000 0.983319 0.181889
vn 0.000000 0.983319 0.181889
vn 0.000000 0.000000 -1.000000
vn -0.000000 0.000000 -1.000000
vn 0.000000 0.000000 -1.000000
vn 0.000000 0.000000 -1.000000
vn 0.000000 -1.000000 -0.000000
vn 0.000000 -1.000000 0.000000
vn 0.000000 -1.000000 -0.000000
vn 0.000000 -1.000000 -0.000000
vn 0.000000 0.983319 0.181889
vn 0.000000 0.983319 0.181889
vn 0.000000 0.000000 -1.000000
vn 0.000000 0.000000 -1.000000
vn 0.000000 -1.000000 0.000000
vn 0.000000 -1.000000 -0.000000
vn 0.000000 -0.284306 0.958734
vn 0.000000 -0.284306 0.958734
vn -0.000000 0.983319 0.181889
vn -0.000000 0.983319 0.181889
vn 0.000000 0.000000 -1.000000
vn 0.000000 0.000000 -1.000000
vn 0.000000 -1.000000 -0.000000
vn 0.000000 -1.000000 -0.000000
vn 0.000000 -0.284306 0.958734
vn 0.000000 -0.284306 0.958734
vn 0.000000 -0.284306 0.958734
vn 0.000000 -0.284306 0.958733
vn 0.000000 0.983319 0.181889
vn 0.000000 0.983319 0.181889
vn 0.000000 0.000000 -1.000000
vn 0.000000 0.000000 -1.000000
vn 0.000000 -1.000000 0.000000
vn 0.000000 -1.000000 0.000000
vn 0.000000 -0.284306 0.958734
vn 0.000000 -0.284306 0.958734
vn 0.000000 -0.284306 0.958734
vn 0.000000 -0.284306 0.958734
vn 0.000000 -0.284306 0.958734
vn -0.959967 0.036595 -0.277711
vn -0.960090 0.015688 -0.279252
vn 0.000000 0.000000 -1.000000
vn 0.000000 0.000000 -1.000000
vn 0.000000 0.000000 -1.000000
vn -0.000000 0.000000 -1.000000
vn -0.000000 0.000000 -1.000000
vn 0.000000 0.000000 -1.000000
vn 0.000000 0.000000 -1.000000
vn 0.960090 0.015688 -0.279252
vn 0.959967 0.036595 -0.277711
vn 0.000000 -0.284306 0.958734
vn 0.000000 -0.284306 0.958734
vn 0.000000 -0.284306 0.958734
vn 0.000000 -0.284306 0.958734
vn 0.000000 -0.284306 0.958734
vn 0.000000 -0.284306 0.958734
vn 0.000000 -0.284306 0.958734
vn 0.000000 -0.284306 0.958734
vn -0.967519 0.032698 -0.250676
vn -0.967142 0.014260 -0.253835
vn 0.000000 0.000000 -1.000000
vn 0.000000 0.000000 -1.000000
vn 0.000000 0.000000 -1.000000
vn 0.000000 0.000000 -1.000000
vn 0.000000 0.000000 -1.000000
vn 0.000000 0.000000 -1.000000
vn 0.000000 0.000000 -1.000000
vn 0.967142 0.014260 -0.253835
vn 0.967519 0.032698 -0.250676
vn 0.000000 -0.284306 0.958734
vn 0.000000 -1.000000 -0.000000
vn 0.000000 -1.000000 0.000000
vn 0.000000 -1.000000 -0.000000
vn 0.000000 -1.000000 0.000000
vn 0.000000 -1.000000 0.000000
vn -0.944724 0.064828 -0.321393
vn -0.957290 0.057169 -0.283421
vn -0.959892 0.055437 -0.274834
vn -0.967564 0.049951 -0.247638
vn 0.000000 0.983319 0.181889
vn 0.000000 0.983319 0.181889
vn 0.000000 0.983319 0.181889
vn 0.000000 0.983319 0.181889
vn 0.000000 0.983319 0.181889
vn 0.000000 0.983319 0.181889
vn 0.000000 0.983319 0.181889
vn 0.959892 0.055437 -0.274834
vn 0.967564 0.049951 -0.247638
vn 0.957290 0.057169 -0.283421
vn 0.944724 0.064829 -0.321393
vn 0.000000 -1.000000 0.000000
vn 0.000000 -1.000000 0.000000
vn 0.000000 0.000000 0.000000
vn 0.000000 0.000000 0.000000
vn 0.000000 0.000000 0.000000
vn 0.000000 0.000000 0.000000
vn 0.000000 0.000000 0.000000
vn 0.000000 0.000000 0.000000
vn 0.000000 0.000000 0.000000
vn 0.000000 0.000000 0.000000
vn -0.000000 0.000000 0.000000
vn -1.000000 0.000000 0.000000
vn -1.000000 0.000000 0.000000
vn -0.000000 0.000000 0.000000
vn 0.000000 -1.000000 0.000000
vn 0.000000 -1.000000 0.000000
vn 0.000000 -1.000000 0.000000
vn 0.000000 -1.000000 0.000000
vn 0.908124 0.418702 0.000000
vn 0.000000 0.000000 0.000000
vn 0.000000 0.000000 0.000000
vn 0.908124 0.418702 0.000000
vn 0.000000 0.000000 0.000000
vn 0.000000 1.000000 0.000000
vn 0.000000 1.000000 0.000000
vn 0.000000 0.000000 0.000000
vn 0.000000 1.000000 0.000000
vn 0.000000 1.000000 0.000000
vn 0.000000 1.000000 0.000000
vn 0.000000 1.000000 0.000000
vn 0.000000 -1.000000 0.000000
vn 0.000000 -0.000000 0.000000
vn 0.000000 -0.000000 0.000000
vn 0.000000 -1.000000 0.000000
vn 0.884324 -0.466874 0.000000
vn 0.000000 -0.000000 0.000000
vn 0.000000 -0.000000 0.000000
vn 0.884324 -0.466874 0.000000
vn -0.000000 0.000000 0.000000
vn -1.000000 0.000000 0.000000
vn -1.000000 0.000000 0.000000
vn -0.000000 0.000000 0.000000
vn -0.000000 0.000000 0.000000
vn -1.000000 0.000000 0.000000
vn -1.000000 0.000000 0.000000
vn -0.000000 0.000000 0.000000
vn 0.000000 -1.000000 0.000000
vn 0.000000 -1.000000 0.000000
vn 0.000000 -1.000000 0.000000
vn 0.000000 -1.000000 0.000000
vn 0.999826 0.018630 0.000000
vn 0.000000 0.000000 0.000000
vn 0.000000 0.000000 0.000000
vn 0.999826 0.018630 0.000000
vn 0.000000 1.000000 0.000000
vn 0.000000 1.000000 0.000000
vn 0.000000 1.000000 0.000000
vn 0.000000 1.000000 0.000000
vn 0.000000 1.000000 0.000000
vn 0.000000 0.000000 0.000000
vn 0.000000 0.000000 0.000000
vn 0.000000 1.000000 0.000000
vn 0.000000 0.000000 0.000000
vn 0.000000 0.000000 0.000000
vn 0.000000 0.000000 0.000000
vn 0.000000 0.000000 0.000000
vn -0.999930 -0.005493 -0.010438
vn -1.000000 -0.000000 0.000000
vn -1.000000 -0.000000 0.000000
vn -0.999914 -0.006102 -0.011595
vn 1.000000 0.000000 -0.000000
vn 0.964889 0.122322 0.232438
vn 0.957755 0.133929 0.254495
vn 1.000000 0.000000 -0.000000
vn -1.000000 -0.000000 0.000000
vn -1.000000 -0.000000 0.000000
vn 0.000000 -0.958733 -0.284308
vn 0.000000 -0.958733 -0.284308
vn 0.000000 -0.958733 -0.284308
vn 0.000000 -0.958733 -0.284308
vn 1.000000 0.000000 0.000000
vn 1.000000 0.000000 0.000000
vn 0.942003 0.156292 0.296989
vn 0.942003 0.156292 0.296989
vn 0.000000 0.000000 1.000000
vn 0.000000 0.000000 1.000000
vn 0.000000 0.000000 1.000000
vn 0.000000 0.000000 1.000000
vn -0.999880 -0.007229 -0.013737
vn -0.999879 -0.007229 -0.013737
vn -0.965188 0.121811 0.231462
vn -1.000000 -0.000000 -0.000000
vn -1.000000 -0.000000 -0.000000
vn -0.958107 0.133385 0.253456
vn 1.000000 -0.000000 0.000000
vn 0.999609 -0.013031 -0.024762
vn 0.999517 -0.014474 -0.027504
vn 1.000000 -0.000000 0.000000
vn -1.000000 -0.000000 0.000000
vn -1.000000 -0.000000 0.000000
vn 0.000000 -0.958733 -0.284308
vn 0.000000 -0.958733 -0.284308
vn 0.000000 -0.958733 -0.284308
vn 0.000000 -0.958733 -0.284308
vn 1.000000 -0.000000 0.000000
vn 1.000000 -0.000000 0.000000
vn 0.999322 -0.017145 -0.032579
vn 0.999322 -0.017145 -0.032579
vn 0.000000 0.000000 1.000000
vn 0.000000 0.000000 1.000000
vn 0.000000 0.000000 1.000000
vn 0.000000 0.000000 1.000000
vn -0.942475 0.155676 0.295813
vn -0.942475 0.155676 0.295813
f 1/153/1 13/154/2 33/155/3 34/156/4
f 64/85/5 65/86/6 15/87/7 5/88/8
f 35/181/9 36/182/10 16/183/11 7/184/12
f 7/106/13 16/107/14 60/108/15 61/109/16
f 73/13/17 8/14/18 41/15/19 72/16/20
f 7/25/21 61/26/22 62/27/23 35/28/24
f 9/170/25 21/174/26 30/171/27 31/166/28
f 11/95/29 67/94/30 68/97/31 23/98/32
f 12/193/33 38/192/34 39/196/35 24/197/36
f 58/115/37 12/114/38 24/116/39 57/117/40
f 15/87/7 65/86/6 66/91/41 19/92/42
f 16/183/11 36/182/10 37/187/43 20/188/44
f 60/108/15 16/107/14 20/110/45 59/111/46
f 17/169/47 9/170/25 31/166/28 32/165/48
f 19/92/42 66/91/41 67/94/30 11/95/29
f 20/188/44 37/187/43 38/192/34 12/193/33
f 59/111/46 20/110/45 12/114/38 58/115/37
f 23/98/32 68/97/31 69/100/49 27/101/50
f 24/197/36 39/196/35 40/200/51 28/201/52
f 74/120/53 57/117/40 24/116/39 28/121/54
f 25/179/55 2/180/56 42/178/57 29/177/58
f 27/101/50 69/100/49 70/103/59 6/104/60
f 28/201/52 40/200/51 41/204/61 8/205/62
f 74/120/53 28/121/54 8/125/63 73/126/64
f 31/166/28 30/171/27 44/167/65 45/163/66
f 32/165/48 31/166/28 45/163/66 46/161/67
f 34/156/4 33/155/3 47/157/68 48/158/69
f 35/28/24 62/27/23 63/31/70 49/32/71
f 49/185/72 50/186/73 36/182/10 35/181/9
f 37/187/43 36/182/10 50/186/73 51/191/74
f 38/192/34 37/187/43 51/191/74 52/195/75
f 39/196/35 38/192/34 52/195/75 53/199/76
f 40/200/51 39/196/35 53/199/76 54/203/77
f 41/204/61 40/200/51 54/203/77 55/207/78
f 72/16/20 41/15/19 55/17/79 71/18/80
f 29/177/58 42/178/57 56/175/81 43/172/82
f 44/167/65 43/172/82 26/173/83 22/168/84
f 45/163/66 44/167/65 22/168/84 10/164/85
f 46/161/67 45/163/66 10/164/85 18/162/86
f 47/157/68 46/161/67 18/162/86 14/159/87
f 48/158/69 47/157/68 14/159/87 3/160/88
f 49/32/71 63/31/70 64/34/89 5/35/90
f 5/189/91 15/190/92 50/186/73 49/185/72
f 51/191/74 50/186/73 15/190/92 19/194/93
f 52/195/75 51/191/74 19/194/93 11/198/94
f 53/199/76 52/195/75 11/198/94 23/202/95
f 54/203/77 53/199/76 23/202/95 27/206/96
f 55/207/78 54/203/77 27/206/96 6/208/97
f 71/18/80 55/17/79 6/21/98 70/22/99
f 43/172/82 56/175/81 4/176/100 26/173/83
f 9/119/101 58/115/37 57/117/40 21/122/102
f 17/118/103 59/111/46 58/115/37 9/119/101
f 61/109/16 60/108/15 13/112/104 1/113/105
f 62/27/23 61/26/22 1/29/106 34/30/107
f 63/31/70 62/27/23 34/30/107 48/33/108
f 64/34/89 63/31/70 48/33/108 3/36/109
f 3/89/110 14/90/111 65/86/6 64/85/5
f 66/91/41 65/86/6 14/90/111 18/93/112
f 67/94/30 66/91/41 18/93/112 10/96/113
f 68/97/31 67/94/30 10/96/113 22/99/114
f 69/100/49 68/97/31 22/99/114 26/102/115
f 70/103/59 69/100/49 26/102/115 4/105/116
f 56/23/117 71/18/80 70/22/99 4/24/118
f 42/20/119 72/16/20 71/18/80 56/23/117
f 2/19/120 73/13/17 72/16/20 42/20/119
f 25/127/121 74/120/53 73/126/64 2/128/122
f 17/3/123 32/4/124 77/7/125 76/8/126
f 33/2/127 13/1/128 75/9/129 78/10/130
f 32/37/131 46/38/132 79/39/133 77/40/134
f 46/129/135 47/130/136 80/131/137 79/132/138
f 47/47/139 33/48/140 78/49/141 80/50/142
f 13/135/143 60/136/144 81/137/145 75/138/146
f 60/136/147 59/139/148 82/140/149 81/137/150
f 59/111/151 17/118/152 76/123/153 82/124/154
f 25/57/155 29/58/156 85/59/157 84/60/158
f 30/61/159 21/62/160 83/63/161 86/64/162
f 29/65/163 43/66/164 87/67/165 85/68/166
f 43/141/167 44/142/168 88/143/169 87/144/170
f 44/75/171 30/76/172 86/77/173 88/78/174
f 21/147/175 57/148/176 89/149/177 83/150/178
f 57/148/179 74/151/180 90/152/181 89/149/182
f 74/5/183 25/6/184 84/12/185 90/11/186
f 76/43/187 77/40/188 93/42/189 92/44/190
f 78/49/191 75/53/192 91/54/193 94/51/194
f 77/40/188 79/39/195 95/41/196 93/42/189
f 79/132/197 80/131/198 96/133/199 95/134/200
f 80/50/201 78/49/191 94/51/194 96/52/202
f 75/53/192 81/55/203 97/56/204 91/54/193
f 81/209/205 82/210/206 98/211/207 97/212/208
f 82/45/209 76/43/187 92/44/190 98/46/210
f 84/71/211 85/68/212 101/70/213 100/72/214
f 86/77/215 83/81/216 99/82/217 102/79/218
f 85/68/212 87/67/219 103/69/220 101/70/213
f 87/144/221 88/143/222 104/145/223 103/146/224
f 88/78/225 86/77/215 102/79/218 104/80/226
f 83/81/216 89/83/227 105/84/228 99/82/217
f 89/213/229 90/214/230 106/215/231 105/216/232
f 90/73/233 84/71/211 100/72/214 106/74/234
